<svg width="2100" height="1033" viewBox="0 0 2100 1033" fill="none" xmlns="http://www.w3.org/2000/svg">
<g clip-path="url(#clip0_12_2)">
<rect width="2100" height="1033" fill="#F7F7F5"/>
<circle cx="73.5" cy="413.5" r="293.5" fill="#EFEFEE" fill-opacity="0.3"/>
<circle cx="40.5" cy="994.5" r="136" stroke="black" stroke-opacity="0.03"/>
<path d="M1083.26 684.528C1073.82 691.615 1064.97 700.08 1056.72 709.924C1064.71 714.911 1071.46 720.423 1076.97 726.46C1082.47 732.366 1086.87 738.403 1090.14 744.572C1093.55 750.74 1095.98 756.843 1097.42 762.88C1098.86 768.917 1099.58 774.495 1099.58 779.614C1099.58 792.476 1097.16 803.697 1092.31 813.278C1087.46 822.727 1081.03 830.602 1073.04 836.902C1065.17 843.201 1056.06 847.926 1045.7 851.076C1035.48 854.094 1024.86 855.604 1013.85 855.604C1001.53 855.604 989.403 854.226 977.474 851.47C971.968 863.15 966.004 874.765 959.581 886.315C953.157 897.864 946.144 908.954 938.541 919.585C931.069 930.084 922.876 939.928 913.962 949.115C905.179 958.171 895.676 965.98 885.451 972.542C875.357 979.235 864.411 984.485 852.613 988.291C840.816 992.097 828.231 994 814.86 994C801.883 994 789.888 991.9 778.877 987.7C767.866 983.501 758.362 977.398 750.365 969.392C742.369 961.255 736.142 951.411 731.685 939.862C727.228 928.181 725 914.86 725 899.898C725 880.474 728.277 861.772 734.832 843.792C741.517 825.811 750.628 809.012 762.163 793.394C773.83 777.776 787.529 763.602 803.259 750.871C818.99 738.141 835.965 727.248 854.186 718.192C872.408 709.136 891.481 702.115 911.406 697.127C931.331 692.14 951.257 689.646 971.182 689.646C986.781 689.646 1000.61 690.959 1012.67 693.584C1024.86 696.077 1035.61 699.424 1044.92 703.624C1050.16 699.03 1055.67 694.765 1061.44 690.828C1067.2 686.759 1073.43 683.15 1080.12 680L1083.26 684.528ZM960.957 835.13C966.987 822.53 972.952 810.456 978.85 798.907C984.749 787.226 990.714 776.201 996.744 765.833C1002.9 755.334 1009.26 745.556 1015.82 736.5C1022.37 727.313 1029.45 718.848 1037.05 711.105C1028.4 707.692 1018.96 705.199 1008.74 703.624C998.645 702.049 987.83 701.261 976.294 701.261C960.433 701.261 944.899 703.164 929.693 706.971C914.487 710.777 899.805 716.026 885.647 722.72C871.621 729.282 858.185 737.091 845.338 746.147C832.623 755.203 820.759 765.046 809.748 775.676C798.868 786.307 788.971 797.463 780.057 809.144C771.274 820.693 763.736 832.374 757.444 844.186C751.283 855.997 746.498 867.678 743.09 879.228C739.813 890.646 738.174 901.539 738.174 911.907C738.174 922.013 740.009 931.462 743.68 940.256C747.35 948.918 752.397 956.464 758.821 962.895C765.375 969.326 773.109 974.379 782.023 978.054C791.068 981.729 800.965 983.566 811.714 983.566C828.362 983.566 843.306 980.285 856.546 973.723C869.786 967.161 882.043 957.842 893.316 945.768C904.59 933.562 915.273 918.929 925.367 901.867C935.461 884.805 945.751 865.775 956.238 844.776C942.605 839.395 929.955 832.505 918.288 824.105L921.434 818.593C927.726 821.743 934.084 824.762 940.507 827.649C947.062 830.405 953.878 832.899 960.957 835.13ZM1078.94 768.392C1078.94 756.712 1076.38 746.737 1071.27 738.469C1066.29 730.201 1059.27 723.31 1050.23 717.798C1038.3 733.285 1026.89 751.331 1016.01 771.936C1005.26 792.41 994.122 815.246 982.586 840.445C986.388 841.101 990.19 841.626 993.991 842.02C997.793 842.283 1001.66 842.414 1005.59 842.414C1015.55 842.414 1024.93 840.642 1033.71 837.098C1042.62 833.555 1050.42 828.568 1057.11 822.137C1063.8 815.575 1069.1 807.766 1073.04 798.71C1076.97 789.654 1078.94 779.548 1078.94 768.392Z" fill="#F3F3F2"/>
<path d="M1218.74 841.233C1217.04 844.645 1214.61 849.107 1211.46 854.619C1208.45 860.132 1205.17 866.234 1201.63 872.928C1198.09 879.49 1194.49 886.38 1190.82 893.599C1187.28 900.817 1184 907.904 1180.99 914.86C1178.1 921.685 1175.68 928.181 1173.71 934.35C1171.88 940.387 1170.96 945.506 1170.96 949.705C1170.96 953.905 1171.75 956.661 1173.32 957.974C1175.02 959.155 1177.19 959.745 1179.81 959.745C1183.61 959.745 1187.48 958.63 1191.41 956.399C1195.47 954.168 1199.4 951.28 1203.21 947.737C1207.14 944.193 1210.94 940.19 1214.61 935.728C1218.28 931.266 1221.69 926.803 1224.84 922.341C1228.11 917.748 1231.06 913.417 1233.68 909.348C1236.31 905.148 1238.53 901.605 1240.37 898.717L1247.45 904.229C1245.22 908.429 1242.6 912.957 1239.58 917.813C1236.57 922.669 1233.23 927.591 1229.55 932.578C1226.02 937.434 1222.15 942.159 1217.95 946.752C1213.76 951.346 1209.3 955.414 1204.58 958.958C1199.99 962.502 1195.14 965.323 1190.03 967.423C1184.92 969.523 1179.68 970.573 1174.3 970.573C1166.44 970.573 1160.67 968.211 1157 963.486C1153.33 958.761 1151.49 952.658 1151.49 945.177C1151.49 944.652 1151.49 943.537 1151.49 941.831C1151.62 939.993 1151.82 938.55 1152.08 937.5C1145.53 945.768 1139.24 952.593 1133.21 957.974C1127.31 963.355 1121.54 967.62 1115.9 970.77C1110.4 973.92 1105.02 976.085 1099.78 977.266C1094.67 978.579 1089.75 979.235 1085.03 979.235C1080.05 979.235 1075.33 978.382 1070.87 976.676C1066.55 975.101 1062.75 972.739 1059.47 969.589C1056.06 966.439 1053.44 962.567 1051.6 957.974C1049.64 953.38 1048.65 948.065 1048.65 942.028C1048.65 934.547 1050.36 926.016 1053.77 916.435C1057.04 906.723 1062.94 896.289 1071.46 885.134C1078.67 875.553 1086.15 867.481 1093.88 860.919C1101.74 854.357 1109.41 849.107 1116.89 845.17C1124.49 841.101 1131.7 838.214 1138.51 836.508C1145.33 834.802 1151.43 833.949 1156.8 833.949C1168.86 833.949 1177.97 835.983 1184.13 840.051C1190.29 843.989 1194.03 850.092 1195.34 858.36C1197.96 855.079 1200.72 851.798 1203.6 848.517C1206.48 845.236 1209.43 841.889 1212.45 838.476L1218.74 841.233ZM1158.37 916.041C1160.08 913.285 1162.18 909.807 1164.67 905.608C1167.16 901.276 1169.78 896.88 1172.53 892.418C1175.28 887.824 1177.97 883.427 1180.59 879.228C1183.22 875.028 1185.51 871.484 1187.48 868.597C1187.48 867.416 1187.28 865.513 1186.89 862.888C1186.62 860.263 1185.77 857.638 1184.33 855.013C1182.89 852.257 1180.59 849.895 1177.45 847.926C1174.3 845.957 1169.91 844.973 1164.27 844.973C1160.21 844.973 1155.62 845.629 1150.51 846.942C1145.53 848.123 1140.15 850.223 1134.39 853.241C1128.75 856.129 1122.92 860 1116.89 864.856C1110.86 869.712 1104.83 875.75 1098.8 882.968C1089.75 893.861 1082.74 904.82 1077.76 915.845C1072.91 926.738 1070.48 936.581 1070.48 945.374C1070.48 952.855 1072.18 958.63 1075.59 962.698C1079 966.767 1083.85 968.801 1090.14 968.801C1097.35 968.801 1104.1 967.226 1110.4 964.076C1116.69 960.795 1122.59 956.596 1128.09 951.477C1133.6 946.359 1138.84 940.715 1143.82 934.547C1148.81 928.247 1153.66 922.079 1158.37 916.041Z" fill="#F3F3F2"/>
<path d="M1364.64 904.229C1362.67 907.117 1360.31 911.054 1357.56 916.041C1354.94 920.897 1351.86 926.213 1348.32 931.987C1344.78 937.631 1340.85 943.406 1336.52 949.312C1332.33 955.218 1327.67 960.533 1322.56 965.258C1317.58 969.982 1312.14 973.854 1306.24 976.873C1300.34 979.891 1294.05 981.401 1287.36 981.401C1283.69 981.401 1280.22 980.81 1276.94 979.629C1273.67 978.579 1270.78 976.873 1268.29 974.51C1265.8 972.148 1263.83 969.261 1262.39 965.848C1260.95 962.305 1260.23 958.171 1260.23 953.446C1260.23 947.015 1261.47 940.321 1263.97 933.366C1266.59 926.278 1269.6 919.454 1273.01 912.892C1276.42 906.329 1279.83 900.358 1283.24 894.977C1286.64 889.465 1289.13 885.068 1290.71 881.787C1292.28 878.506 1293.07 875.684 1293.07 873.322C1293.07 871.615 1292.48 870.106 1291.3 868.794C1290.25 867.481 1288.87 866.234 1287.17 865.053C1285.59 863.741 1283.89 862.428 1282.06 861.116C1280.35 859.672 1278.91 857.966 1277.73 855.997C1274.45 861.247 1271.11 866.563 1267.7 871.944C1264.69 876.537 1261.41 881.721 1257.87 887.496C1254.33 893.139 1250.92 898.717 1247.64 904.229L1240.57 898.717L1282.65 832.767L1288.35 835.72C1288.09 836.508 1287.63 837.755 1286.97 839.461C1286.45 841.167 1286.18 843.004 1286.18 844.973C1286.18 846.417 1286.38 847.86 1286.77 849.304C1287.3 850.617 1288.28 851.863 1289.72 853.045C1294.97 857.769 1299.1 861.444 1302.11 864.069C1305.13 866.563 1307.29 868.597 1308.6 870.172C1310.04 871.615 1310.89 872.862 1311.16 873.912C1311.55 874.831 1311.75 876.078 1311.75 877.653C1311.75 879.228 1311.48 881.131 1310.96 883.362C1310.44 885.593 1309.52 888.283 1308.21 891.433C1307.03 894.583 1305.32 898.324 1303.09 902.655C1301 906.854 1298.31 911.776 1295.03 917.419C1293.07 920.832 1291.1 924.31 1289.13 927.853C1287.3 931.266 1285.59 934.744 1284.02 938.287C1282.58 941.831 1281.4 945.374 1280.48 948.918C1279.56 952.461 1279.11 955.874 1279.11 959.155C1279.11 961.648 1279.43 963.683 1280.09 965.258C1280.88 966.701 1281.86 967.817 1283.04 968.604C1284.22 969.392 1285.46 969.917 1286.77 970.179C1288.22 970.442 1289.59 970.573 1290.9 970.573C1295.23 970.573 1299.49 969.326 1303.68 966.833C1308.01 964.208 1312.21 960.861 1316.27 956.792C1320.46 952.724 1324.46 948.13 1328.26 943.012C1332.2 937.762 1335.93 932.447 1339.47 927.066C1343.01 921.685 1346.29 916.566 1349.3 911.71C1352.32 906.723 1355.01 902.392 1357.36 898.717L1364.64 904.229Z" fill="#F3F3F2"/>
<path d="M1397.28 809.734C1398.59 807.503 1400.89 803.631 1404.16 798.119C1407.57 792.607 1411.5 786.504 1415.96 779.811C1420.55 773.117 1425.46 766.424 1430.71 759.73C1436.08 752.906 1441.33 747.131 1446.44 742.406L1455.29 747.722C1449.65 757.04 1443.88 766.949 1437.98 777.448C1432.08 787.817 1426.25 798.578 1420.48 809.734H1484.59L1480.65 819.971H1415.17C1409.28 831.783 1403.7 843.529 1398.46 855.21C1393.35 866.891 1388.83 878.046 1384.89 888.677C1380.96 899.308 1377.88 909.282 1375.65 918.601C1373.42 927.788 1372.31 935.794 1372.31 942.618C1372.31 951.149 1374.28 957.317 1378.21 961.124C1382.14 964.798 1386.99 966.636 1392.76 966.636C1397.87 966.636 1403.11 965.126 1408.49 962.108C1413.86 958.958 1419.11 955.021 1424.22 950.296C1429.46 945.571 1434.38 940.387 1438.97 934.744C1443.69 929.1 1447.82 923.785 1451.35 918.797C1455.02 913.81 1458.04 909.479 1460.4 905.804C1462.76 901.998 1464.2 899.636 1464.73 898.717L1472 904.229C1467.41 911.842 1462.23 919.913 1456.47 928.444C1450.7 936.975 1444.28 944.915 1437.2 952.265C1430.25 959.483 1422.65 965.52 1414.39 970.376C1406.13 975.101 1397.22 977.463 1387.65 977.463C1381.75 977.463 1376.57 976.413 1372.11 974.313C1367.79 972.214 1364.12 969.326 1361.1 965.651C1358.09 961.845 1355.86 957.383 1354.42 952.265C1352.84 947.146 1352.06 941.568 1352.06 935.531C1352.06 931.594 1352.71 926.016 1354.02 918.797C1355.2 911.579 1357.3 903.048 1360.31 893.205C1363.33 883.231 1367.33 872.075 1372.31 859.738C1377.42 847.401 1383.84 834.145 1391.58 819.971H1358.94L1362.87 809.734H1397.28Z" fill="#F3F3F2"/>
<path d="M1628.91 869.975C1628.91 875.618 1627.93 881.393 1625.96 887.299C1624 893.074 1621.51 898.914 1618.49 904.82C1615.48 910.595 1612.26 916.304 1608.86 921.947C1605.45 927.591 1602.24 933.037 1599.22 938.287C1596.21 943.537 1593.72 948.59 1591.75 953.446C1589.78 958.171 1588.8 962.502 1588.8 966.439C1588.8 969.457 1589.45 971.492 1590.77 972.542C1592.08 973.592 1593.52 974.117 1595.09 974.117C1600.07 974.117 1605.64 971.689 1611.81 966.833C1617.97 961.845 1624.19 955.611 1630.49 948.13C1636.91 940.65 1643.27 932.512 1649.56 923.719C1655.85 914.926 1661.55 906.592 1666.67 898.717L1673.74 904.229C1672.7 905.804 1670.79 908.954 1668.04 913.679C1665.29 918.273 1661.88 923.588 1657.82 929.625C1653.75 935.531 1649.17 941.765 1644.05 948.327C1639.07 954.758 1633.7 960.73 1627.93 966.242C1622.16 971.623 1616.2 976.085 1610.04 979.629C1604.01 983.172 1597.91 984.944 1591.75 984.944C1588.21 984.944 1585 984.354 1582.11 983.172C1579.23 981.991 1576.74 980.351 1574.64 978.251C1572.68 976.151 1571.1 973.723 1569.92 970.967C1568.74 968.079 1568.15 965.061 1568.15 961.911C1568.15 956.792 1569.27 951.28 1571.5 945.374C1573.86 939.337 1576.74 933.169 1580.15 926.869C1583.56 920.569 1587.29 914.27 1591.36 907.97C1595.42 901.539 1599.16 895.436 1602.56 889.661C1605.97 883.887 1608.79 878.571 1611.02 873.715C1613.38 868.728 1614.56 864.463 1614.56 860.919C1614.56 856.851 1613.44 853.438 1611.22 850.682C1609.12 847.926 1606.1 846.548 1602.17 846.548C1597.98 846.548 1593.13 848.32 1587.62 851.863C1582.11 855.276 1575.95 860.329 1569.14 867.022C1562.32 873.715 1554.85 881.984 1546.72 891.827C1538.72 901.539 1530.01 912.629 1520.57 925.097C1515.19 932.316 1509.95 939.271 1504.84 945.965C1502.61 948.852 1500.38 951.805 1498.15 954.824C1495.92 957.842 1493.7 960.861 1491.47 963.88C1489.24 966.767 1487.14 969.523 1485.18 972.148C1483.21 974.904 1481.44 977.266 1479.87 979.235L1462.56 972.148L1485.57 940.453C1488.85 935.99 1492.19 931.2 1495.6 926.082C1499 920.963 1502.35 915.713 1505.62 910.332C1509.03 904.82 1512.24 899.308 1515.26 893.796C1518.27 888.283 1521.09 882.902 1523.71 877.653C1527.52 869.778 1530.14 863.282 1531.58 858.163C1533.02 852.913 1533.74 848.713 1533.74 845.564C1533.74 842.02 1533.09 839.723 1531.78 838.673C1530.47 837.492 1528.63 836.902 1526.27 836.902C1523.78 836.902 1520.9 838.214 1517.62 840.839C1514.47 843.332 1511.2 846.614 1507.79 850.682C1504.38 854.619 1500.91 859.147 1497.37 864.266C1493.96 869.253 1490.68 874.24 1487.53 879.228C1484.39 884.215 1481.44 888.94 1478.69 893.402C1475.93 897.864 1473.64 901.473 1471.8 904.229L1464.73 898.717C1471.41 888.218 1477.44 878.637 1482.82 869.975C1488.32 861.182 1493.56 853.635 1498.55 847.335C1503.66 841.036 1508.57 836.18 1513.29 832.767C1518.14 829.224 1523.26 827.452 1528.63 827.452C1531.51 827.452 1534.27 828.043 1536.89 829.224C1539.64 830.405 1542 832.177 1543.97 834.539C1546.07 836.77 1547.7 839.526 1548.88 842.808C1550.06 846.089 1550.65 849.895 1550.65 854.226C1550.65 857.638 1550.26 861.182 1549.47 864.856C1555.24 859.213 1560.62 854.554 1565.6 850.879C1570.58 847.204 1575.17 844.317 1579.36 842.217C1583.56 839.986 1587.42 838.411 1590.96 837.492C1594.5 836.573 1597.71 836.114 1600.6 836.114C1603.09 836.114 1605.97 836.573 1609.25 837.492C1612.53 838.411 1615.61 840.117 1618.49 842.611C1621.37 845.104 1623.8 848.582 1625.77 853.045C1627.86 857.376 1628.91 863.019 1628.91 869.975Z" fill="#F3F3F2"/>
<path d="M1681.81 927.263C1681.54 928.838 1681.35 930.413 1681.22 931.987C1681.08 933.562 1681.02 935.137 1681.02 936.712C1681.02 941.437 1681.67 945.965 1682.99 950.296C1684.43 954.496 1686.46 958.236 1689.08 961.517C1691.83 964.667 1695.18 967.161 1699.11 968.998C1703.17 970.836 1707.76 971.754 1712.87 971.754C1730.05 971.754 1746.63 965.914 1762.62 954.233C1778.61 942.553 1794.54 924.047 1810.4 898.717L1817.09 904.623C1808.44 919.06 1799.65 931.266 1790.74 941.24C1781.83 951.083 1772.91 959.089 1764 965.258C1755.21 971.426 1746.56 975.888 1738.04 978.645C1729.52 981.401 1721.39 982.779 1713.66 982.779C1708.02 982.779 1702.06 981.991 1695.77 980.416C1689.47 978.841 1683.64 976.217 1678.27 972.542C1673.02 968.867 1668.7 963.945 1665.29 957.777C1661.75 951.608 1659.98 943.931 1659.98 934.744C1659.98 924.9 1661.68 915.451 1665.09 906.395C1668.37 897.208 1672.7 888.677 1678.07 880.803C1683.44 872.928 1689.61 865.775 1696.55 859.344C1703.5 852.782 1710.51 847.204 1717.59 842.611C1724.8 838.017 1731.82 834.474 1738.63 831.98C1745.45 829.355 1751.48 828.043 1756.72 828.043C1760.13 828.043 1763.6 828.568 1767.14 829.618C1770.68 830.668 1773.83 832.308 1776.58 834.539C1779.47 836.77 1781.76 839.723 1783.46 843.398C1785.3 847.073 1786.22 851.47 1786.22 856.588C1786.22 863.544 1784.58 870.106 1781.3 876.275C1778.16 882.312 1773.89 887.955 1768.52 893.205C1763.15 898.324 1756.92 902.983 1749.84 907.182C1742.76 911.251 1735.36 914.729 1727.62 917.616C1719.89 920.504 1712.09 922.8 1704.22 924.507C1696.36 926.213 1688.88 927.131 1681.81 927.263ZM1683.38 918.797C1692.16 917.879 1700.42 916.041 1708.15 913.285C1715.89 910.529 1722.97 907.182 1729.39 903.245C1735.81 899.177 1741.52 894.78 1746.5 890.055C1751.61 885.33 1755.87 880.54 1759.28 875.684C1762.69 870.828 1765.31 866.169 1767.14 861.707C1768.98 857.244 1769.9 853.241 1769.9 849.698C1769.9 846.154 1768.91 843.332 1766.95 841.233C1765.11 839.133 1762.88 838.083 1760.26 838.083C1754.49 838.083 1748 840.183 1740.8 844.382C1733.59 848.451 1726.38 854.16 1719.17 861.51C1711.96 868.728 1705.14 877.259 1698.72 887.102C1692.42 896.945 1687.31 907.511 1683.38 918.797Z" fill="#F3F3F2"/>
<path d="M1934.48 904.229C1932.51 907.117 1930.15 911.054 1927.4 916.041C1924.78 920.897 1921.7 926.213 1918.16 931.987C1914.62 937.631 1910.68 943.406 1906.36 949.312C1902.16 955.218 1897.51 960.533 1892.4 965.258C1887.42 969.982 1881.98 973.854 1876.08 976.873C1870.18 979.891 1863.89 981.401 1857.2 981.401C1853.53 981.401 1850.06 980.81 1846.78 979.629C1843.5 978.579 1840.62 976.873 1838.13 974.51C1835.64 972.148 1833.67 969.261 1832.23 965.848C1830.79 962.305 1830.07 958.171 1830.07 953.446C1830.07 947.015 1831.31 940.321 1833.8 933.366C1836.42 926.278 1839.44 919.454 1842.85 912.892C1846.25 906.329 1849.66 900.358 1853.07 894.977C1856.48 889.465 1858.97 885.068 1860.54 881.787C1862.12 878.506 1862.9 875.684 1862.9 873.322C1862.9 871.615 1862.31 870.106 1861.13 868.794C1860.08 867.481 1858.71 866.234 1857 865.053C1855.43 863.741 1853.73 862.428 1851.89 861.116C1850.19 859.672 1848.75 857.966 1847.57 855.997C1844.29 861.247 1840.95 866.563 1837.54 871.944C1834.52 876.537 1831.25 881.721 1827.71 887.496C1824.17 893.139 1820.76 898.717 1817.48 904.229L1810.4 898.717L1852.48 832.767L1858.18 835.72C1857.92 836.508 1857.46 837.755 1856.81 839.461C1856.28 841.167 1856.02 843.004 1856.02 844.973C1856.02 846.417 1856.22 847.86 1856.61 849.304C1857.14 850.617 1858.12 851.863 1859.56 853.045C1864.8 857.769 1868.93 861.444 1871.95 864.069C1874.96 866.563 1877.13 868.597 1878.44 870.172C1879.88 871.615 1880.73 872.862 1880.99 873.912C1881.39 874.831 1881.58 876.078 1881.58 877.653C1881.58 879.228 1881.32 881.131 1880.8 883.362C1880.27 885.593 1879.35 888.283 1878.04 891.433C1876.86 894.583 1875.16 898.324 1872.93 902.655C1870.83 906.854 1868.15 911.776 1864.87 917.419C1862.9 920.832 1860.94 924.31 1858.97 927.853C1857.14 931.266 1855.43 934.744 1853.86 938.287C1852.42 941.831 1851.24 945.374 1850.32 948.918C1849.4 952.461 1848.94 955.874 1848.94 959.155C1848.94 961.648 1849.27 963.683 1849.93 965.258C1850.71 966.701 1851.7 967.817 1852.87 968.604C1854.05 969.392 1855.3 969.917 1856.61 970.179C1858.05 970.442 1859.43 970.573 1860.74 970.573C1865.07 970.573 1869.33 969.326 1873.52 966.833C1877.85 964.208 1882.04 960.861 1886.11 956.792C1890.3 952.724 1894.3 948.13 1898.1 943.012C1902.03 937.762 1905.77 932.447 1909.31 927.066C1912.85 921.685 1916.12 916.566 1919.14 911.71C1922.15 906.723 1924.84 902.392 1927.2 898.717L1934.48 904.229Z" fill="#F3F3F2"/>
<path d="M1990.32 817.609C1989.66 818.79 1988.81 820.102 1987.76 821.546C1986.71 822.859 1985.67 824.433 1984.62 826.271C1983.7 827.977 1982.85 830.011 1982.06 832.374C1981.41 834.736 1981.08 837.558 1981.08 840.839C1981.08 843.595 1981.73 847.335 1983.04 852.06C1984.49 856.785 1985.99 862.232 1987.57 868.4C1989.14 874.437 1990.58 881.065 1991.89 888.283C1993.33 895.371 1994.06 902.72 1994.06 910.332C1994.06 921.488 1992.55 931.331 1989.53 939.862C1986.52 948.393 1982.52 955.677 1977.54 961.714C1987.76 956.202 1997.79 948.327 2007.62 938.09C2017.45 927.722 2027.35 914.598 2037.31 898.717L2044 904.623C2038.36 913.941 2031.94 923.194 2024.73 932.381C2017.65 941.437 2009.85 949.64 2001.33 956.989C1992.81 964.208 1983.63 970.048 1973.8 974.51C1963.97 979.104 1953.55 981.401 1942.54 981.401C1932.71 981.401 1924.45 979.038 1917.76 974.313C1910.95 969.72 1906.75 962.764 1905.18 953.446L1912.26 952.068C1912.26 952.855 1912.65 954.168 1913.44 956.005C1914.09 957.711 1915.21 959.417 1916.78 961.124C1918.35 962.83 1920.52 964.339 1923.27 965.651C1925.89 966.964 1929.17 967.62 1933.1 967.62C1938.34 967.62 1943 966.439 1947.06 964.076C1951.12 961.583 1954.66 958.367 1957.68 954.43C1960.69 950.493 1963.25 946.031 1965.35 941.043C1967.45 935.925 1969.08 930.675 1970.26 925.294C1971.57 919.913 1972.49 914.663 1973.02 909.545C1973.54 904.426 1973.8 899.767 1973.8 895.567C1973.8 891.368 1973.61 886.708 1973.21 881.59C1972.95 876.471 1972.62 871.615 1972.23 867.022C1971.84 862.297 1971.44 858.229 1971.05 854.816C1970.79 851.273 1970.66 848.976 1970.66 847.926V847.532C1968.95 849.37 1966.92 852.06 1964.56 855.604C1962.2 859.147 1959.65 863.019 1956.89 867.219C1954.27 871.419 1951.58 875.684 1948.83 880.015C1946.21 884.346 1943.78 888.283 1941.56 891.827C1939.46 895.371 1937.69 898.324 1936.25 900.686C1934.94 902.917 1934.28 904.098 1934.28 904.229L1927.2 898.717C1927.33 898.586 1928.97 895.764 1932.12 890.252C1935.26 884.74 1939.39 877.784 1944.5 869.384C1949.75 860.853 1955.65 851.47 1962.2 841.233C1968.76 830.864 1975.51 820.824 1982.45 811.112L1990.32 817.609Z" fill="#F3F3F2"/>
</g>
<defs>
<clipPath id="clip0_12_2">
<rect width="2100" height="1033" fill="white"/>
</clipPath>
</defs>
</svg>
