<svg width="521" height="512" viewBox="0 0 521 512" fill="none" xmlns="http://www.w3.org/2000/svg">
<path d="M465.905 166.345C489.772 236.354 440.497 334.443 371.203 378.294C301.91 422.146 212.983 412.145 133.295 360.984C53.6073 309.824 -16.8413 217.505 3.56183 152.497C23.965 87.4891 135.22 49.7922 239.545 52.1002C344.256 54.0235 441.652 96.3364 465.905 166.345Z" fill="#EAE7E3"/>
<path d="M59 127.808V384.032L289.64 511.84L520.28 384.032V127.808L289.64 0L59 127.808ZM289.64 343.12L210.712 299.376V212.464L289.64 168.72L368.568 212.464V299.376L289.64 343.12ZM504.28 374.592L297.72 489.088V356.928L384.568 308.816V203.04L289.64 150.448L194.712 203.04V308.816L281.72 357.024V489.184L75 374.592V137.248L289.64 18.272L504.28 137.248V374.592Z" fill="#897A66"/>
</svg>
