<svg xmlns="http://www.w3.org/2000/svg" xmlns:xlink="http://www.w3.org/1999/xlink" version="1.1" x="0px" y="0px" viewBox="0 0 100 100" enable-background="new 0 0 100 100" xml:space="preserve" width="100" height="100">
    <path d="M51.6,41.8c0-8.4,6.8-15.2,15.2-15.2c8.4,0,15.2,6.3,15.2,18C82,60.8,69.9,72,56.8,72.2c-2.2,0-3.4-1.3-3.4-3.5v-0.1  c0-2.2,0.6-3.2,1.7-3.5c3.5-0.6,10.6-2.5,12.9-8.1C57.2,57,51.6,50.1,51.6,41.8z M34.7,57c-2.3,5.6-9.4,7.5-12.9,8.1  c-1.1,0.3-1.7,1.3-1.7,3.5v0.1c0,2.2,1.2,3.5,3.4,3.5C36.6,72,48.7,60.8,48.7,44.6c0-11.7-6.8-18-15.2-18c-8.4,0-15.2,6.8-15.2,15.2  S23.8,57,34.7,57z" fill=" rgba(247, 247, 245, 0.58"></path>
</svg>
