<svg width="2600" height="2315" viewBox="0 0 2600 2315" fill="none" xmlns="http://www.w3.org/2000/svg">
<g clip-path="url(#clip0_11_11)">
<rect width="2600" height="2315" fill="white"/>
<g clip-path="url(#clip1_11_11)">
<mask id="path-1-outside-1_11_11" maskUnits="userSpaceOnUse" x="-1096.92" y="-558.996" width="5676" height="3969" fill="black">
<rect fill="white" x="-1096.92" y="-558.996" width="5676" height="3969"/>
<path d="M-738.545 1516.2C-458.876 1201.68 -163.316 899.505 165.285 635.641C491.32 373.844 850.894 150.689 1242.04 0.160868C1432.56 -73.1556 1630 -128.968 1831.45 -162.503C1857.24 -166.802 1883.11 -170.721 1909.02 -174.283C1913.32 -174.877 1946.7 -180.411 1946.93 -178.012C1947.69 -170.365 1924.34 -147.446 1919.55 -141.152C1884.27 -95.0769 1848.98 -49.0018 1813.7 -2.92665C1741.99 90.6961 1670.3 184.343 1598.59 277.965C1314.08 649.511 1029.56 1021.06 745.026 1392.6C459.372 1765.65 173.717 2138.66 -111.938 2511.71C-147.211 2557.78 -182.508 2603.86 -217.782 2649.93C-220.418 2653.38 -215.05 2656.58 -212.176 2654.25C69.7496 2425.49 365.428 2213.83 672.983 2020.89C977.997 1829.51 1294.51 1656.42 1620.23 1502.88C1948.62 1348.07 2286.34 1213.1 2631.07 1099.22C2672.85 1085.42 2714.73 1071.93 2756.7 1058.75C2778.46 1051.91 2800.26 1045.16 2822.07 1038.49C2826.72 1037.06 2846.11 1028.02 2850.12 1029.96C2858.22 1033.91 2851.07 1060.13 2850.22 1068.06C2839.41 1169.73 2829.17 1271.45 2819.46 1373.25C2799.88 1578.66 2782.59 1784.31 2767.56 1990.11C2737.77 2397.99 2716.89 2806.54 2704.97 3215.35C2703.45 3267.39 2702.09 3319.42 2700.86 3371.46L2706.94 3368.94C2449.41 3104.34 2200.26 2831.71 1956.96 2554.01C1713.58 2276.2 1475.96 1993.41 1240.99 1708.46C1005.84 1423.29 773.34 1135.94 540.227 849.107C305.998 560.9 71.1748 273.192 -167.568 -11.2867C-226.095 -81.0406 -284.884 -150.605 -343.934 -219.931C-401.916 -287.999 -457.593 -360.769 -522.914 -422.02C-642.653 -534.334 -801.3 -544.951 -957.144 -527.043C-994.342 -522.768 -1031.37 -517.139 -1068.36 -511.249C-1072.49 -510.584 -1071.23 -504.433 -1067.41 -504.243C-682.25 -486.122 -298.162 -447.148 82.7188 -387.108C460.369 -327.59 834.789 -247.6 1203.79 -147.565C1572.37 -47.648 1934.44 73.4773 2290.71 210.729C2645.92 347.553 2995.82 497.559 3347.42 643.218C3698.68 788.758 4052.03 930.142 4413.19 1049.42C4458.54 1064.4 4504.03 1078.98 4549.61 1093.26C4554 1094.64 4555.88 1087.75 4551.51 1086.39C4186.8 972.251 3830.36 833.907 3476.97 688.984C3123.16 543.919 2772.02 392.393 2416.27 252.078C2059.62 111.406 1697.95 -15.3717 1329.07 -120.181C960.182 -224.99 587.876 -309.184 210.986 -373.261C-164.503 -437.149 -543.413 -480.778 -923.581 -503.697C-971.515 -506.594 -1019.45 -509.136 -1067.41 -511.392L-1066.46 -504.386C-907.097 -529.751 -722.202 -556.113 -580.23 -459.427C-506.406 -409.148 -450.776 -334.026 -393.317 -266.861C-334.124 -197.653 -275.217 -128.208 -216.57 -58.5731C18.1341 220.134 248.896 502.119 478.802 784.768C708.732 1067.44 937.807 1350.8 1169.16 1632.34C1400.33 1913.63 1633.8 2193.1 1872.54 2468.03C2111.16 2742.82 2355.08 3013.07 2607.01 3275.75C2638.51 3308.59 2670.14 3341.32 2701.9 3373.95C2704.11 3376.21 2707.91 3374.45 2707.98 3371.44C2722.54 2759.99 2756.87 2149.04 2811.21 1539.83C2826.58 1367.62 2843.57 1195.57 2862.07 1023.67C2862.31 1021.37 2859.6 1019.63 2857.56 1020.23C2421.95 1151.47 1996.46 1315.75 1585.7 1511.31C1172.3 1708.15 773.91 1936.46 395.191 2193.72C184.667 2336.72 -19.6096 2488.79 -217.235 2649.15L-211.63 2653.47C70.6047 2284.89 352.863 1916.32 635.097 1547.74C917.332 1179.16 1199.59 810.584 1481.82 442.007C1641.16 233.933 1800.5 25.8822 1959.81 -182.192C1961.38 -184.235 1959.29 -187.868 1956.72 -187.56C1542.49 -137.59 1144.81 6.5734 781.25 208.876C408.065 416.523 71.9112 684.709 -235.763 979.59C-412.747 1149.21 -580.753 1327.96 -743.628 1511.12C-746.668 1514.54 -741.633 1519.6 -738.592 1516.15L-738.545 1516.2Z"/>
</mask>
<path d="M-738.545 1516.2C-458.876 1201.68 -163.316 899.505 165.285 635.641C491.32 373.844 850.894 150.689 1242.04 0.160868C1432.56 -73.1556 1630 -128.968 1831.45 -162.503C1857.24 -166.802 1883.11 -170.721 1909.02 -174.283C1913.32 -174.877 1946.7 -180.411 1946.93 -178.012C1947.69 -170.365 1924.34 -147.446 1919.55 -141.152C1884.27 -95.0769 1848.98 -49.0018 1813.7 -2.92665C1741.99 90.6961 1670.3 184.343 1598.59 277.965C1314.08 649.511 1029.56 1021.06 745.026 1392.6C459.372 1765.65 173.717 2138.66 -111.938 2511.71C-147.211 2557.78 -182.508 2603.86 -217.782 2649.93C-220.418 2653.38 -215.05 2656.58 -212.176 2654.25C69.7496 2425.49 365.428 2213.83 672.983 2020.89C977.997 1829.51 1294.51 1656.42 1620.23 1502.88C1948.62 1348.07 2286.34 1213.1 2631.07 1099.22C2672.85 1085.42 2714.73 1071.93 2756.7 1058.75C2778.46 1051.91 2800.26 1045.16 2822.07 1038.49C2826.72 1037.06 2846.11 1028.02 2850.12 1029.96C2858.22 1033.91 2851.07 1060.13 2850.22 1068.06C2839.41 1169.73 2829.17 1271.45 2819.46 1373.25C2799.88 1578.66 2782.59 1784.31 2767.56 1990.11C2737.77 2397.99 2716.89 2806.54 2704.97 3215.35C2703.45 3267.39 2702.09 3319.42 2700.86 3371.46L2706.94 3368.94C2449.41 3104.34 2200.26 2831.71 1956.96 2554.01C1713.58 2276.2 1475.96 1993.41 1240.99 1708.46C1005.84 1423.29 773.34 1135.94 540.227 849.107C305.998 560.9 71.1748 273.192 -167.568 -11.2867C-226.095 -81.0406 -284.884 -150.605 -343.934 -219.931C-401.916 -287.999 -457.593 -360.769 -522.914 -422.02C-642.653 -534.334 -801.3 -544.951 -957.144 -527.043C-994.342 -522.768 -1031.37 -517.139 -1068.36 -511.249C-1072.49 -510.584 -1071.23 -504.433 -1067.41 -504.243C-682.25 -486.122 -298.162 -447.148 82.7188 -387.108C460.369 -327.59 834.789 -247.6 1203.79 -147.565C1572.37 -47.648 1934.44 73.4773 2290.71 210.729C2645.92 347.553 2995.82 497.559 3347.42 643.218C3698.68 788.758 4052.03 930.142 4413.19 1049.42C4458.54 1064.4 4504.03 1078.98 4549.61 1093.26C4554 1094.64 4555.88 1087.75 4551.51 1086.39C4186.8 972.251 3830.36 833.907 3476.97 688.984C3123.16 543.919 2772.02 392.393 2416.27 252.078C2059.62 111.406 1697.95 -15.3717 1329.07 -120.181C960.182 -224.99 587.876 -309.184 210.986 -373.261C-164.503 -437.149 -543.413 -480.778 -923.581 -503.697C-971.515 -506.594 -1019.45 -509.136 -1067.41 -511.392L-1066.46 -504.386C-907.097 -529.751 -722.202 -556.113 -580.23 -459.427C-506.406 -409.148 -450.776 -334.026 -393.317 -266.861C-334.124 -197.653 -275.217 -128.208 -216.57 -58.5731C18.1341 220.134 248.896 502.119 478.802 784.768C708.732 1067.44 937.807 1350.8 1169.16 1632.34C1400.33 1913.63 1633.8 2193.1 1872.54 2468.03C2111.16 2742.82 2355.08 3013.07 2607.01 3275.75C2638.51 3308.59 2670.14 3341.32 2701.9 3373.95C2704.11 3376.21 2707.91 3374.45 2707.98 3371.44C2722.54 2759.99 2756.87 2149.04 2811.21 1539.83C2826.58 1367.62 2843.57 1195.57 2862.07 1023.67C2862.31 1021.37 2859.6 1019.63 2857.56 1020.23C2421.95 1151.47 1996.46 1315.75 1585.7 1511.31C1172.3 1708.15 773.91 1936.46 395.191 2193.72C184.667 2336.72 -19.6096 2488.79 -217.235 2649.15L-211.63 2653.47C70.6047 2284.89 352.863 1916.32 635.097 1547.74C917.332 1179.16 1199.59 810.584 1481.82 442.007C1641.16 233.933 1800.5 25.8822 1959.81 -182.192C1961.38 -184.235 1959.29 -187.868 1956.72 -187.56C1542.49 -137.59 1144.81 6.5734 781.25 208.876C408.065 416.523 71.9112 684.709 -235.763 979.59C-412.747 1149.21 -580.753 1327.96 -743.628 1511.12C-746.668 1514.54 -741.633 1519.6 -738.592 1516.15L-738.545 1516.2Z" fill="black" fill-opacity="0.01"/>
<path d="M-738.545 1516.2L-756.228 1533.87L-737.483 1552.63L-719.862 1532.81L-738.545 1516.2ZM165.285 635.641L149.632 616.148L149.632 616.148L165.285 635.641ZM1242.04 0.160868L1233.06 -23.1712L1233.06 -23.171L1242.04 0.160868ZM1831.45 -162.503L1835.55 -137.843L1835.56 -137.843L1831.45 -162.503ZM1909.02 -174.283L1912.43 -149.516L1912.44 -149.517L1912.44 -149.518L1909.02 -174.283ZM1946.93 -178.012L1922.06 -175.549L1922.06 -175.54L1946.93 -178.012ZM1919.55 -141.152L1939.4 -125.955L1939.41 -125.975L1939.43 -125.995L1919.55 -141.152ZM1813.7 -2.92665L1833.55 12.2752L1833.55 12.2703L1813.7 -2.92665ZM1598.59 277.965L1578.75 262.764L1578.75 262.766L1598.59 277.965ZM745.026 1392.6L725.178 1377.4L725.177 1377.4L745.026 1392.6ZM-111.938 2511.71L-131.787 2496.51L-131.789 2496.51L-111.938 2511.71ZM-217.782 2649.93L-197.931 2665.13L-197.931 2665.13L-217.782 2649.93ZM-212.176 2654.25L-196.443 2673.68L-196.433 2673.68L-196.424 2673.67L-212.176 2654.25ZM672.983 2020.89L686.269 2042.07L686.271 2042.06L672.983 2020.89ZM1620.23 1502.88L1630.89 1525.49L1630.89 1525.49L1620.23 1502.88ZM2631.07 1099.22L2623.23 1075.48L2623.23 1075.48L2631.07 1099.22ZM2756.7 1058.75L2764.19 1082.6L2764.2 1082.6L2756.7 1058.75ZM2822.07 1038.49L2829.39 1062.4L2829.39 1062.4L2822.07 1038.49ZM2850.12 1029.96L2861.06 1007.49L2861.05 1007.48L2861.03 1007.47L2850.12 1029.96ZM2850.22 1068.06L2825.36 1065.38L2825.36 1065.4L2825.36 1065.42L2850.22 1068.06ZM2819.46 1373.25L2794.57 1370.87L2794.57 1370.88L2819.46 1373.25ZM2767.56 1990.11L2742.62 1988.29L2742.62 1988.29L2767.56 1990.11ZM2704.97 3215.35L2729.96 3216.08L2729.96 3216.08L2704.97 3215.35ZM2700.86 3371.46L2675.86 3370.87L2674.95 3409.24L2710.42 3394.56L2700.86 3371.46ZM2706.94 3368.94L2716.5 3392.04L2750.57 3377.93L2724.85 3351.5L2706.94 3368.94ZM1956.96 2554.01L1938.15 2570.48L1938.15 2570.48L1956.96 2554.01ZM1240.99 1708.46L1260.28 1692.55L1260.28 1692.55L1240.99 1708.46ZM540.227 849.107L520.827 864.874L520.827 864.874L540.227 849.107ZM-167.568 -11.2867L-186.719 4.78255L-186.718 4.78446L-167.568 -11.2867ZM-343.934 -219.931L-324.903 -236.142L-324.903 -236.142L-343.934 -219.931ZM-522.914 -422.02L-540.017 -403.786L-540.014 -403.784L-522.914 -422.02ZM-957.144 -527.043L-959.998 -551.88L-959.999 -551.88L-957.144 -527.043ZM-1068.36 -511.249L-1072.29 -535.938L-1072.31 -535.935L-1072.33 -535.932L-1068.36 -511.249ZM-1067.41 -504.243L-1068.65 -479.274L-1068.61 -479.272L-1068.58 -479.271L-1067.41 -504.243ZM82.7188 -387.108L78.826 -362.413L78.8268 -362.413L82.7188 -387.108ZM1203.79 -147.565L1197.25 -123.435L1197.25 -123.435L1203.79 -147.565ZM2290.71 210.729L2281.72 234.058L2281.73 234.058L2290.71 210.729ZM3347.42 643.218L3356.99 620.122L3356.98 620.121L3347.42 643.218ZM4413.19 1049.42L4421.04 1025.68L4421.03 1025.68L4413.19 1049.42ZM4549.61 1093.26L4557.09 1069.4L4557.08 1069.4L4549.61 1093.26ZM4551.51 1086.39L4544.04 1110.25L4544.08 1110.26L4544.11 1110.27L4551.51 1086.39ZM3476.97 688.984L3486.45 665.853L3486.45 665.853L3476.97 688.984ZM2416.27 252.078L2407.1 275.334L2407.1 275.334L2416.27 252.078ZM210.986 -373.261L206.792 -348.616L206.795 -348.615L210.986 -373.261ZM-923.581 -503.697L-925.09 -478.742L-925.086 -478.742L-923.581 -503.697ZM-1067.41 -511.392L-1066.23 -536.364L-1096.21 -537.775L-1092.18 -508.032L-1067.41 -511.392ZM-1066.46 -504.386L-1091.23 -501.026L-1087.79 -475.675L-1062.53 -479.696L-1066.46 -504.386ZM-580.23 -459.427L-566.157 -480.09L-566.158 -480.09L-580.23 -459.427ZM-393.317 -266.861L-374.318 -283.111L-374.32 -283.113L-393.317 -266.861ZM-216.57 -58.5731L-197.448 -74.6766L-197.448 -74.6775L-216.57 -58.5731ZM478.802 784.768L459.408 800.543L459.408 800.544L478.802 784.768ZM1169.16 1632.34L1149.85 1648.21L1149.85 1648.21L1169.16 1632.34ZM1872.54 2468.03L1853.66 2484.42L1853.66 2484.42L1872.54 2468.03ZM2607.01 3275.75L2625.05 3258.44L2625.05 3258.44L2607.01 3275.75ZM2701.9 3373.95L2683.99 3391.39L2684.01 3391.42L2684.04 3391.44L2701.9 3373.95ZM2707.98 3371.44L2682.99 3370.84L2682.99 3370.84L2707.98 3371.44ZM2811.21 1539.83L2786.31 1537.61L2786.31 1537.61L2811.21 1539.83ZM2862.07 1023.67L2886.93 1026.35L2886.93 1026.29L2886.94 1026.23L2862.07 1023.67ZM2857.56 1020.23L2850.58 996.22L2850.46 996.254L2850.34 996.289L2857.56 1020.23ZM1585.7 1511.31L1574.95 1488.73L1574.95 1488.73L1585.7 1511.31ZM395.191 2193.72L409.238 2214.4L409.239 2214.4L395.191 2193.72ZM-217.235 2649.15L-232.988 2629.74L-257.528 2649.65L-232.501 2668.95L-217.235 2649.15ZM-211.63 2653.47L-226.895 2673.27L-207.031 2688.59L-191.781 2668.67L-211.63 2653.47ZM1481.82 442.007L1461.98 426.808L1461.97 426.808L1481.82 442.007ZM1959.81 -182.192L1939.98 -197.414L1939.97 -197.402L1939.96 -197.39L1959.81 -182.192ZM1956.72 -187.56L1953.73 -212.381L1953.73 -212.38L1956.72 -187.56ZM781.25 208.876L793.405 230.722L793.406 230.722L781.25 208.876ZM-235.763 979.59L-218.464 997.639L-218.464 997.639L-235.763 979.59ZM-743.628 1511.12L-762.31 1494.5L-762.312 1494.51L-743.628 1511.12ZM-738.592 1516.15L-720.909 1498.48L-739.72 1479.66L-757.333 1499.61L-738.592 1516.15ZM-719.862 1532.81C-440.674 1218.83 -146.152 917.785 180.938 655.135L149.632 616.148C-180.479 881.224 -477.077 1184.52 -757.227 1499.59L-719.862 1532.81ZM180.937 655.135C505.426 394.579 862.784 172.9 1251.02 23.4927L1233.06 -23.171C839.004 128.477 477.213 353.11 149.632 616.148L180.937 655.135ZM1251.02 23.4929C1440.11 -49.275 1635.92 -104.61 1835.55 -137.843L1827.34 -187.164C1624.07 -153.327 1425.01 -97.0362 1233.06 -23.1712L1251.02 23.4929ZM1835.56 -137.843C1861.11 -142.102 1886.74 -145.985 1912.43 -149.516L1905.62 -199.05C1879.48 -195.457 1853.38 -191.503 1827.34 -187.163L1835.56 -137.843ZM1912.44 -149.518C1916.24 -150.043 1923.27 -151.25 1932.72 -152.478C1937.06 -153.042 1940.67 -153.432 1942.99 -153.568C1944.33 -153.648 1944.24 -153.577 1943.38 -153.648C1943.18 -153.664 1941.01 -153.806 1938.21 -154.793C1936.82 -155.282 1933.76 -156.491 1930.6 -159.186C1927.1 -162.17 1922.84 -167.618 1922.06 -175.549L1971.81 -180.476C1970.19 -196.854 1955.68 -201.649 1954.82 -201.951C1951.51 -203.12 1948.59 -203.389 1947.45 -203.482C1944.7 -203.707 1941.93 -203.593 1940.04 -203.481C1935.9 -203.237 1930.85 -202.655 1926.28 -202.062C1917.91 -200.974 1906.11 -199.118 1905.6 -199.048L1912.44 -149.518ZM1922.06 -175.54C1921.77 -178.404 1922.13 -180.617 1922.39 -181.808C1922.67 -183.048 1922.99 -183.866 1923.12 -184.162C1923.34 -184.688 1923.33 -184.525 1922.68 -183.525C1921.4 -181.557 1919.23 -178.741 1916.26 -175.252C1913.39 -171.867 1910.31 -168.466 1907.42 -165.261C1904.97 -162.555 1901.67 -158.942 1899.66 -156.309L1939.43 -125.995C1939.39 -125.943 1939.48 -126.061 1939.77 -126.409C1940.05 -126.736 1940.41 -127.16 1940.89 -127.701C1941.86 -128.8 1943.05 -130.116 1944.5 -131.722C1947.3 -134.822 1950.92 -138.809 1954.38 -142.897C1957.76 -146.88 1961.58 -151.621 1964.62 -156.298C1966.13 -158.62 1967.85 -161.552 1969.23 -164.82C1970.37 -167.552 1972.52 -173.362 1971.81 -180.485L1922.06 -175.54ZM1899.7 -156.349C1882.06 -133.313 1864.42 -110.277 1846.78 -87.2396C1829.13 -64.2023 1811.49 -41.1631 1793.85 -18.1236L1833.55 12.2703C1851.19 -10.7653 1868.83 -33.8013 1886.47 -56.8391C1904.11 -79.8764 1921.76 -102.916 1939.4 -125.955L1899.7 -156.349ZM1793.86 -18.1285C1758 28.6845 1722.15 75.5032 1686.3 122.32C1650.45 169.138 1614.6 215.954 1578.75 262.764L1618.44 293.167C1654.3 246.354 1690.15 199.536 1726 152.718C1761.85 105.901 1797.7 59.085 1833.55 12.2752L1793.86 -18.1285ZM1578.75 262.766C1294.23 634.312 1009.72 1005.86 725.178 1377.4L764.875 1407.8C1049.41 1036.26 1333.93 664.711 1618.44 293.165L1578.75 262.766ZM725.177 1377.4C582.35 1563.93 439.523 1750.44 296.696 1936.96C153.868 2123.47 11.0407 2309.99 -131.787 2496.51L-92.0888 2526.91C50.7384 2340.38 193.566 2153.87 336.393 1967.35C479.22 1780.84 622.048 1594.32 764.876 1407.8L725.177 1377.4ZM-131.789 2496.51C-149.424 2519.55 -167.065 2542.58 -184.708 2565.62C-202.35 2588.66 -219.994 2611.7 -237.632 2634.74L-197.931 2665.13C-180.296 2642.09 -162.654 2619.06 -145.011 2596.02C-127.369 2572.98 -109.725 2549.94 -92.0871 2526.9L-131.789 2496.51ZM-237.632 2634.73C-242.227 2640.74 -244.882 2649.15 -242.748 2658.15C-240.809 2666.34 -235.678 2671.79 -231.189 2674.87C-223.24 2680.33 -208.661 2683.58 -196.443 2673.68L-227.909 2634.83C-218.565 2627.26 -208.107 2630.07 -202.902 2633.64C-199.784 2635.78 -195.681 2639.94 -194.096 2646.62C-192.317 2654.13 -194.654 2660.85 -197.931 2665.13L-237.632 2634.73ZM-196.424 2673.67C84.7201 2445.54 379.576 2234.47 686.269 2042.07L659.698 1999.71C351.281 2193.2 54.7791 2405.45 -227.928 2634.84L-196.424 2673.67ZM686.271 2042.06C990.438 1851.22 1306.07 1678.61 1630.89 1525.49L1609.57 1480.26C1282.94 1634.23 965.556 1807.8 659.696 1999.71L686.271 2042.06ZM1630.89 1525.49C1958.37 1371.11 2295.15 1236.52 2638.91 1122.96L2623.23 1075.48C2277.53 1189.68 1938.87 1325.03 1609.57 1480.26L1630.89 1525.49ZM2638.91 1122.96C2680.58 1109.2 2722.34 1095.74 2764.19 1082.6L2749.21 1034.9C2707.12 1048.12 2665.13 1061.64 2623.23 1075.48L2638.91 1122.96ZM2764.2 1082.6C2785.88 1075.78 2807.63 1069.05 2829.39 1062.4L2814.75 1014.58C2792.9 1021.27 2771.03 1028.04 2749.2 1034.9L2764.2 1082.6ZM2829.39 1062.4C2830.9 1061.93 2832.43 1061.35 2833.46 1060.95C2834.62 1060.5 2835.93 1059.98 2837.17 1059.48C2839.78 1058.43 2842.44 1057.36 2845.02 1056.4C2847.73 1055.4 2849.59 1054.81 2850.61 1054.57C2851.15 1054.43 2850.73 1054.58 2849.68 1054.65C2849.12 1054.69 2847.97 1054.74 2846.44 1054.57C2844.99 1054.41 2842.31 1053.96 2839.21 1052.46L2861.03 1007.47C2854.48 1004.29 2848.31 1004.63 2846.23 1004.77C2843.33 1004.97 2840.71 1005.52 2838.79 1005.98C2834.9 1006.93 2830.87 1008.33 2827.65 1009.52C2824.31 1010.76 2820.99 1012.1 2818.53 1013.08C2815.44 1014.33 2814.63 1014.62 2814.75 1014.58L2829.39 1062.4ZM2839.18 1052.44C2834.29 1050.06 2831.59 1046.41 2830.31 1043.96C2829.15 1041.73 2828.94 1040.13 2828.93 1040.06C2828.93 1040.02 2829.05 1041.41 2828.68 1044.79C2828.34 1047.86 2827.76 1051.25 2827.11 1054.82C2826.81 1056.45 2826.45 1058.39 2826.17 1059.97C2825.9 1061.5 2825.56 1063.49 2825.36 1065.38L2875.07 1070.74C2875.07 1070.76 2875.09 1070.6 2875.15 1070.19C2875.21 1069.8 2875.3 1069.29 2875.41 1068.65C2875.66 1067.26 2875.93 1065.82 2876.29 1063.81C2876.97 1060.11 2877.83 1055.21 2878.38 1050.24C2878.89 1045.58 2879.33 1039.18 2878.41 1032.87C2877.7 1027.95 2874.9 1014.22 2861.06 1007.49L2839.18 1052.44ZM2825.36 1065.42C2814.54 1167.18 2804.29 1268.99 2794.57 1370.87L2844.34 1375.62C2854.05 1273.92 2864.28 1172.28 2875.08 1070.7L2825.36 1065.42ZM2794.57 1370.88C2774.98 1576.47 2757.67 1782.31 2742.62 1988.29L2792.49 1991.93C2807.51 1786.32 2824.79 1580.85 2844.34 1375.62L2794.57 1370.88ZM2742.62 1988.29C2712.81 2396.53 2691.91 2805.45 2679.98 3214.62L2729.96 3216.08C2741.87 2807.63 2762.73 2399.45 2792.49 1991.93L2742.62 1988.29ZM2679.98 3214.62C2678.46 3266.71 2677.1 3318.79 2675.86 3370.87L2725.85 3372.05C2727.08 3320.05 2728.44 3268.06 2729.96 3216.08L2679.98 3214.62ZM2710.42 3394.56L2716.5 3392.04L2697.37 3345.84L2691.29 3348.36L2710.42 3394.56ZM2724.85 3351.5C2467.68 3087.28 2218.84 2814.98 1975.76 2537.53L1938.15 2570.48C2181.68 2848.45 2431.13 3121.41 2689.02 3386.38L2724.85 3351.5ZM1975.76 2537.53C1732.61 2259.98 1495.15 1977.39 1260.28 1692.55L1221.7 1724.36C1456.76 2009.43 1694.56 2292.42 1938.15 2570.48L1975.76 2537.53ZM1260.28 1692.55C1025.2 1407.47 792.788 1120.23 559.628 833.34L520.827 864.874C753.892 1151.65 986.474 1439.1 1221.7 1724.36L1260.28 1692.55ZM559.628 833.34C325.388 545.119 90.4598 257.281 -148.418 -27.3578L-186.718 4.78446C51.8898 289.102 286.608 576.68 520.827 864.874L559.628 833.34ZM-148.416 -27.3559C-206.982 -97.155 -265.81 -166.766 -324.903 -236.142L-362.966 -203.72C-303.958 -134.443 -245.209 -64.9262 -186.719 4.78255L-148.416 -27.3559ZM-324.903 -236.142C-381.72 -302.844 -439.13 -377.728 -505.814 -440.257L-540.014 -403.784C-476.056 -343.81 -422.111 -273.154 -362.966 -203.72L-324.903 -236.142ZM-505.811 -440.254C-633.835 -560.339 -802.106 -570.023 -959.998 -551.88L-954.29 -502.207C-800.494 -519.879 -651.472 -508.33 -540.017 -403.786L-505.811 -440.254ZM-959.999 -551.88C-997.758 -547.54 -1035.23 -541.84 -1072.29 -535.938L-1064.42 -486.56C-1027.52 -492.438 -990.925 -497.996 -954.29 -502.207L-959.999 -551.88ZM-1072.33 -535.932C-1080.12 -534.678 -1087.47 -530.195 -1091.93 -522.752C-1095.99 -515.976 -1096.43 -508.852 -1095.52 -503.429C-1093.87 -493.607 -1085.42 -480.107 -1068.65 -479.274L-1066.17 -529.212C-1053.22 -528.569 -1047.31 -518.239 -1046.21 -511.707C-1045.58 -507.929 -1045.79 -502.479 -1049.05 -497.049C-1052.7 -490.953 -1058.66 -487.488 -1064.38 -486.567L-1072.33 -535.932ZM-1068.58 -479.271C-684.326 -461.192 -301.146 -422.309 78.826 -362.413L86.6116 -411.803C-295.179 -471.986 -680.174 -511.052 -1066.23 -529.215L-1068.58 -479.271ZM78.8268 -362.413C455.585 -303.035 829.121 -223.234 1197.25 -123.435L1210.34 -171.694C840.458 -271.966 465.153 -352.145 86.6107 -411.803L78.8268 -362.413ZM1197.25 -123.435C1564.9 -23.7714 1926.15 97.0738 2281.72 234.058L2299.7 187.4C1942.73 49.8809 1579.84 -71.5246 1210.33 -171.694L1197.25 -123.435ZM2281.73 234.058C2636.54 370.732 2985.88 520.499 3337.85 666.314L3356.98 620.121C3005.77 474.618 2655.29 324.374 2299.7 187.4L2281.73 234.058ZM3337.85 666.314C3689.23 811.905 4043.28 953.581 4405.35 1073.15L4421.03 1025.68C4060.78 906.704 3708.12 765.611 3356.99 620.122L3337.85 666.314ZM4405.35 1073.15C4450.83 1088.19 4496.45 1102.81 4542.14 1117.12L4557.08 1069.4C4511.6 1055.16 4466.24 1040.62 4421.04 1025.68L4405.35 1073.15ZM4542.13 1117.11C4550 1119.58 4558.74 1118.65 4566.03 1113.9C4572.67 1109.56 4576.37 1103.22 4577.95 1097.47C4581.04 1086.21 4577.16 1068.17 4558.9 1062.51L4544.11 1110.27C4538.42 1108.51 4533.51 1104.29 4530.91 1098.57C4528.57 1093.42 4528.62 1088.29 4529.74 1084.23C4530.85 1080.2 4533.52 1075.4 4538.72 1072.02C4544.56 1068.21 4551.42 1067.63 4557.09 1069.4L4542.13 1117.11ZM4558.98 1062.54C4195.28 948.709 3839.61 810.678 3486.45 665.853L3467.48 712.115C3821.12 857.136 4178.32 995.793 4544.04 1110.25L4558.98 1062.54ZM3486.45 665.853C3133.29 521.05 2781.32 369.189 2425.44 228.821L2407.1 275.334C2762.72 415.598 3113.04 566.787 3467.48 712.115L3486.45 665.853ZM2425.44 228.821C2068.2 87.9179 1705.74 -39.1477 1335.9 -144.229L1322.24 -96.1325C1690.16 8.40435 2051.03 134.895 2407.1 275.334L2425.44 228.821ZM1335.9 -144.229C966.143 -249.286 592.955 -333.679 215.176 -397.908L206.795 -348.615C582.797 -284.689 954.221 -200.694 1322.24 -96.1325L1335.9 -144.229ZM215.179 -397.907C-161.196 -461.946 -541.003 -505.678 -922.077 -528.652L-925.086 -478.742C-545.823 -455.878 -167.811 -412.353 206.792 -348.616L215.179 -397.907ZM-922.073 -528.651C-970.129 -531.556 -1018.18 -534.103 -1066.23 -536.364L-1068.58 -486.419C-1020.72 -484.168 -972.901 -481.632 -925.09 -478.742L-922.073 -528.651ZM-1092.18 -508.032L-1091.23 -501.026L-1041.68 -507.745L-1042.63 -514.751L-1092.18 -508.032ZM-1062.53 -479.696C-982.653 -492.41 -898.763 -504.936 -817.515 -502.685C-736.548 -500.442 -660.036 -483.53 -594.302 -438.763L-566.158 -480.09C-642.397 -532.01 -729.318 -550.26 -816.13 -552.666C-902.663 -555.064 -990.899 -541.727 -1070.39 -529.075L-1062.53 -479.696ZM-594.303 -438.764C-524.068 -390.93 -471.494 -319.786 -412.314 -250.61L-374.32 -283.113C-430.058 -348.266 -488.743 -427.366 -566.157 -480.09L-594.303 -438.764ZM-412.316 -250.612C-353.167 -181.456 -294.301 -112.059 -235.692 -42.4687L-197.448 -74.6775C-256.133 -144.358 -315.081 -213.851 -374.318 -283.111L-412.316 -250.612ZM-235.693 -42.4695C-1.12992 236.07 229.523 517.921 459.408 800.543L498.196 768.993C268.268 486.317 37.3981 204.198 -197.448 -74.6766L-235.693 -42.4695ZM459.408 800.544C689.274 1083.14 918.439 1366.61 1149.85 1648.21L1188.48 1616.46C957.174 1335 728.19 1051.74 498.196 768.993L459.408 800.544ZM1149.85 1648.21C1381.09 1929.6 1614.72 2209.26 1853.66 2484.42L1891.41 2451.64C1652.88 2176.94 1419.56 1897.66 1188.48 1616.46L1149.85 1648.21ZM1853.66 2484.42C2092.49 2759.45 2336.69 3030.01 2588.97 3293.05L2625.05 3258.44C2373.47 2996.13 2129.83 2726.19 1891.41 2451.64L1853.66 2484.42ZM2588.96 3293.05C2620.51 3325.94 2652.19 3358.72 2683.99 3391.39L2719.82 3356.52C2688.1 3323.92 2656.5 3291.24 2625.05 3258.44L2588.96 3293.05ZM2684.04 3391.44C2693.41 3401.02 2706.36 3401.64 2715.67 3397.62C2724.61 3393.75 2732.68 3384.58 2732.98 3372.03L2682.99 3370.84C2683.22 3361.31 2689.35 3354.52 2695.82 3351.73C2702.66 3348.77 2712.6 3349.15 2719.77 3356.46L2684.04 3391.44ZM2732.98 3372.03C2747.52 2761.12 2781.82 2150.72 2836.11 1542.05L2786.31 1537.61C2731.92 2147.37 2697.56 2758.86 2682.99 3370.84L2732.98 3372.03ZM2836.11 1542.05C2851.47 1370 2868.44 1198.1 2886.93 1026.35L2837.21 1020.99C2818.69 1193.04 2801.69 1365.24 2786.31 1537.61L2836.11 1542.05ZM2886.94 1026.23C2888.21 1013.86 2881.33 1004.92 2875.24 1000.54C2869.39 996.356 2860.37 993.373 2850.58 996.22L2864.53 1044.23C2856.78 1046.49 2850.14 1044.07 2846.1 1041.18C2841.81 1038.1 2836.16 1031.17 2837.2 1021.11L2886.94 1026.23ZM2850.34 996.289C2413.53 1127.9 1986.85 1292.63 1574.95 1488.73L1596.44 1533.88C2006.06 1338.86 2430.37 1175.04 2864.77 1044.16L2850.34 996.289ZM1574.95 1488.73C1160.41 1686.12 760.915 1915.06 381.143 2173.04L409.239 2214.4C786.906 1957.85 1184.19 1730.17 1596.44 1533.88L1574.95 1488.73ZM381.144 2173.04C170.023 2316.44 -34.8217 2468.94 -232.988 2629.74L-201.483 2668.56C-4.39745 2508.64 199.311 2356.99 409.238 2214.4L381.144 2173.04ZM-232.501 2668.95L-226.895 2673.27L-196.364 2633.67L-201.97 2629.35L-232.501 2668.95ZM-191.781 2668.67C-50.6636 2484.38 90.4594 2300.09 231.583 2115.8C372.706 1931.52 513.829 1747.23 654.946 1562.94L615.248 1532.54C474.131 1716.83 333.008 1901.12 191.885 2085.41C50.762 2269.69 -90.3613 2453.98 -231.479 2638.27L-191.781 2668.67ZM654.946 1562.94C796.063 1378.65 937.186 1194.36 1078.31 1010.07C1219.43 825.784 1360.56 641.495 1501.67 457.206L1461.97 426.808C1320.86 611.096 1179.73 795.385 1038.61 979.673C897.489 1163.96 756.366 1348.25 615.248 1532.54L654.946 1562.94ZM1501.67 457.207C1661.01 249.134 1820.34 41.0812 1979.66 -166.994L1939.96 -197.39C1780.65 10.6832 1621.31 218.732 1461.98 426.808L1501.67 457.207ZM1979.64 -166.97C1988.64 -178.702 1985.22 -191.728 1981.48 -198.223C1977.74 -204.736 1968.27 -214.13 1953.73 -212.381L1959.71 -162.739C1947.73 -161.298 1940.59 -169.029 1938.14 -173.292C1935.7 -177.537 1932.54 -187.725 1939.98 -197.414L1979.64 -166.97ZM1953.73 -212.38C1535.73 -161.955 1134.96 -16.5538 769.094 187.031L793.406 230.722C1154.67 29.7006 1549.25 -113.224 1959.71 -162.74L1953.73 -212.38ZM769.095 187.031C393.528 396.003 55.668 665.649 -253.061 961.541L-218.464 997.639C88.1543 703.769 422.602 437.044 793.405 230.722L769.095 187.031ZM-253.061 961.541C-430.662 1131.75 -599.14 1311.01 -762.31 1494.5L-724.946 1527.73C-562.366 1344.9 -394.832 1166.67 -218.464 997.639L-253.061 961.541ZM-762.312 1494.51C-774.752 1508.5 -769.239 1525.7 -761.088 1533.87C-756.898 1538.07 -750.473 1541.85 -742.361 1542.27C-733.417 1542.72 -725.319 1538.89 -719.851 1532.7L-757.333 1499.61C-753.385 1495.13 -747.057 1491.96 -739.817 1492.33C-733.41 1492.66 -728.624 1495.61 -725.693 1498.55C-722.723 1501.53 -720.234 1505.87 -719.68 1511.29C-719.068 1517.29 -721.007 1523.3 -724.944 1527.73L-762.312 1494.51ZM-756.275 1533.82L-756.228 1533.87L-720.861 1498.53L-720.909 1498.48L-756.275 1533.82Z" fill="black" fill-opacity="0.01" mask="url(#path-1-outside-1_11_11)"/>
</g>
</g>
<defs>
<clipPath id="clip0_11_11">
<rect width="2600" height="2315" fill="white"/>
</clipPath>
<clipPath id="clip1_11_11">
<rect width="5633" height="3909" fill="white" transform="translate(-1079 -534)"/>
</clipPath>
</defs>
</svg>
