<svg width="998" height="309" viewBox="0 0 998 309" fill="none" xmlns="http://www.w3.org/2000/svg">
<path d="M55.3736 148.497C80.7451 144.758 106.353 142.848 132 142.78C157.647 142.848 183.257 144.758 208.629 148.497C208.824 148.526 209.021 148.54 209.218 148.541C210.144 148.539 211.035 148.191 211.714 147.563C212.394 146.936 212.812 146.077 212.885 145.157C212.958 144.236 212.681 143.322 212.109 142.596C211.537 141.87 210.711 141.386 209.798 141.239C184.038 137.444 158.039 135.503 132 135.432C105.961 135.503 79.9617 137.444 54.2024 141.239C53.2377 141.394 52.3742 141.925 51.8019 142.715C51.2295 143.505 50.9952 144.49 51.1506 145.452C51.3059 146.414 51.838 147.276 52.63 147.847C53.422 148.418 54.4089 148.651 55.3736 148.497Z" fill="#897A66" fill-opacity="0.2"/>
<path d="M76.6583 246.96C76.1879 246.848 75.6998 246.828 75.2219 246.904C74.7441 246.979 74.2858 247.148 73.8734 247.4C73.4609 247.653 73.1023 247.984 72.8181 248.374C72.5338 248.765 72.3295 249.207 72.2167 249.677C72.2167 249.677 65.833 276.223 64.3059 282.664C64.2506 282.847 64.1362 283.005 63.9806 283.116C63.8251 283.226 63.6372 283.282 63.4465 283.274H59.3487C59.2145 283.278 59.0812 283.252 58.9584 283.197C58.8357 283.143 58.7266 283.062 58.6391 282.961C58.5725 282.886 58.5237 282.797 58.4965 282.701C58.4692 282.604 58.4643 282.503 58.482 282.405C59.3438 277.45 64.0751 251.18 64.0751 251.18C64.2473 250.221 64.0305 249.233 63.4725 248.433C62.9144 247.634 62.0607 247.088 61.0993 246.916C60.1378 246.744 59.1473 246.961 58.3457 247.517C57.544 248.074 56.9969 248.926 56.8247 249.885C56.8247 249.885 52.0885 276.181 51.2267 281.146C51.0253 282.3 51.0799 283.484 51.3866 284.615C51.6933 285.745 52.2446 286.795 53.0018 287.69C53.7803 288.613 54.7519 289.354 55.8485 289.862C56.945 290.37 58.1398 290.632 59.3487 290.63H63.4465C65.2979 290.644 67.0995 290.032 68.5576 288.894C70.0156 287.755 71.0441 286.158 71.4752 284.362C73.0024 277.93 79.3812 251.396 79.3812 251.396C79.4949 250.926 79.5147 250.439 79.4393 249.962C79.3639 249.484 79.195 249.027 78.942 248.615C78.6891 248.203 78.3572 247.844 77.9653 247.561C77.5735 247.277 77.1293 247.073 76.6583 246.96Z" fill="#897A66" fill-opacity="0.2"/>
<path d="M207.183 249.885C207.097 249.41 206.919 248.956 206.658 248.55C206.397 248.144 206.059 247.793 205.662 247.517C205.265 247.242 204.817 247.047 204.345 246.944C203.872 246.84 203.384 246.831 202.908 246.916C202.432 247.001 201.977 247.179 201.57 247.439C201.163 247.7 200.811 248.038 200.535 248.434C200.259 248.83 200.063 249.276 199.96 249.747C199.856 250.219 199.847 250.706 199.932 251.181C199.932 251.181 204.656 277.42 205.525 282.407C205.542 282.505 205.537 282.606 205.51 282.702C205.483 282.798 205.434 282.886 205.368 282.961C205.281 283.062 205.172 283.143 205.049 283.197C204.926 283.252 204.793 283.278 204.659 283.274H200.561C200.37 283.281 200.181 283.225 200.025 283.115C199.87 283.004 199.755 282.845 199.699 282.662C198.142 276.11 191.791 249.677 191.791 249.677C191.563 248.729 190.967 247.91 190.134 247.401C189.301 246.891 188.299 246.733 187.349 246.96C186.399 247.188 185.578 247.782 185.068 248.613C184.557 249.444 184.398 250.443 184.626 251.391C184.626 251.391 190.975 277.812 192.532 284.359C192.964 286.155 193.992 287.752 195.45 288.89C196.908 290.028 198.71 290.639 200.561 290.625H204.659C205.868 290.627 207.062 290.365 208.159 289.857C209.255 289.35 210.227 288.608 211.006 287.686C211.763 286.79 212.314 285.74 212.621 284.61C212.927 283.479 212.982 282.295 212.781 281.141C211.909 276.149 207.183 249.885 207.183 249.885Z" fill="#897A66" fill-opacity="0.2"/>
<path d="M264 193.763V100.068C263.986 92.1768 261.095 84.5599 255.867 78.6384C250.638 72.7169 243.428 68.8952 235.583 67.8861V28.9415C235.572 21.2674 232.51 13.9109 227.07 8.48547C221.629 3.06 214.254 0.008423 206.562 0H57.4557C49.7611 0.00842695 42.3841 3.06127 36.943 8.48879C31.5019 13.9163 28.4411 21.2753 28.432 28.9513V67.8959C20.5832 68.9012 13.3695 72.7218 8.13756 78.6442C2.90561 84.5667 0.0130877 92.1862 0 100.08V193.763C0.00772927 201.883 1.92534 209.887 5.59862 217.133C9.2719 224.379 14.5984 230.664 21.1497 235.483C18.7533 248.93 9.87262 293.961 8.97645 299.104C8.76659 300.308 8.82382 301.543 9.1441 302.722C9.46438 303.901 10.0399 304.995 10.8302 305.928C11.6436 306.891 12.6588 307.664 13.8043 308.192C14.9497 308.721 16.1974 308.992 17.4594 308.988H21.8789C23.8109 309.002 25.691 308.364 27.2128 307.176C28.7346 305.989 29.8082 304.322 30.2587 302.448C31.7196 296.288 41.4768 257.272 44.3961 245.133C46.9522 245.537 49.535 245.749 52.1228 245.77H211.88C214.472 245.75 217.059 245.536 219.619 245.131C222.531 257.243 232.293 296.278 233.758 302.46C234.209 304.334 235.283 306.001 236.804 307.189C238.326 308.376 240.206 309.015 242.138 309H246.558C247.82 309.004 249.068 308.731 250.213 308.202C251.359 307.673 252.374 306.899 253.187 305.936C253.978 305.004 254.553 303.91 254.873 302.732C255.193 301.553 255.25 300.319 255.038 299.117C254.145 293.973 245.261 248.949 242.865 235.485C249.414 230.665 254.738 224.379 258.409 217.133C262.079 209.886 263.995 201.882 264 193.763ZM57.4557 7.34804H206.562C212.303 7.35452 217.807 9.63265 221.867 13.6826C225.927 17.7326 228.21 23.2237 228.217 28.9513V68.0869C225.683 68.7855 223.447 70.2918 221.852 72.376C220.256 74.4602 219.387 77.008 219.378 79.6307V170.555C219.371 177.959 216.42 185.057 211.172 190.292C205.924 195.527 198.809 198.471 191.388 198.478H72.6096C65.1884 198.471 58.0731 195.527 52.8255 190.292C47.5779 185.057 44.6267 177.959 44.6195 170.555V79.6234C44.6107 77.003 43.7434 74.4574 42.1499 72.3742C40.5564 70.2911 38.3241 68.7847 35.7929 68.0845V28.9513C35.8 23.2227 38.0849 17.7308 42.1461 13.6808C46.2073 9.6307 51.7132 7.35322 57.4557 7.34804ZM23.082 300.745C23.0066 301.006 22.8469 301.234 22.6279 301.394C22.4089 301.554 22.1429 301.637 21.8715 301.63H17.452C17.2657 301.633 17.081 301.594 16.9112 301.518C16.7415 301.441 16.5908 301.328 16.4699 301.186C16.3712 301.074 16.299 300.94 16.2586 300.796C16.2182 300.652 16.2107 300.501 16.2367 300.354C17.1181 295.291 25.5667 252.452 27.8746 239.737C30.8527 241.308 33.9776 242.584 37.2046 243.548C34.2927 255.614 24.5551 294.561 23.0869 300.745H23.082ZM243.405 277.597C245.279 287.095 246.897 295.298 247.778 300.356C247.804 300.504 247.795 300.656 247.752 300.8C247.71 300.944 247.634 301.076 247.533 301.186C247.412 301.329 247.262 301.442 247.092 301.519C246.922 301.596 246.737 301.634 246.55 301.63H242.131C241.86 301.637 241.594 301.554 241.375 301.394C241.156 301.234 240.996 301.006 240.921 300.745C239.447 294.539 237.451 286.556 235.183 277.477C232.602 267.15 229.705 255.562 226.81 243.536C230.037 242.571 233.162 241.293 236.14 239.72C238.45 252.459 241.168 266.246 243.41 277.597H243.405ZM211.875 238.407H52.1204C40.2553 238.394 28.8801 233.686 20.4901 225.316C12.1 216.947 7.38009 205.599 7.3658 193.763V100.068C7.37653 93.4979 9.96461 87.1929 14.5762 82.5022C19.1878 77.8116 25.4566 75.1078 32.0412 74.9696H32.1149C32.1934 74.9696 32.2646 74.9525 32.3408 74.9476C32.4169 74.9427 32.4832 74.9476 32.5544 74.9476C33.7987 74.9488 34.9919 75.4413 35.8733 76.3174C36.7548 77.1936 37.2528 78.3821 37.2587 79.6234V170.555C37.2678 179.907 40.9957 188.873 47.6242 195.485C54.2527 202.098 63.2403 205.817 72.6145 205.826H191.393C200.767 205.817 209.755 202.098 216.383 195.485C223.012 188.873 226.74 179.907 226.749 170.555V79.6234C226.751 78.38 227.247 77.188 228.128 76.3088C229.009 75.4296 230.204 74.9348 231.451 74.9329H231.696C231.696 74.9329 231.834 74.9549 231.905 74.9549H231.976C238.559 75.0963 244.825 77.8018 249.434 82.4926C254.043 87.1835 256.629 93.4873 256.639 100.056V193.763C256.623 205.599 251.901 216.945 243.511 225.313C235.12 233.681 223.744 238.387 211.88 238.4L211.875 238.407Z" fill="#897A66" fill-opacity="0.2"/>
<path d="M155.2 205H124.4V64.9998H160.2L201.8 164.8L243.4 64.9998H279.4V205H248.4V119.8L214.2 205H189.4L155.2 119.8V205Z" fill="white"/>
<path d="M349.287 206.4C339.554 206.4 330.821 204.333 323.087 200.2C315.354 196.066 309.287 190.133 304.887 182.4C300.621 174.666 298.487 165.533 298.487 155C298.487 144.466 300.687 135.4 305.087 127.8C309.621 120.066 315.754 114.133 323.487 110C331.354 105.733 340.087 103.6 349.687 103.6C359.554 103.6 368.354 105.733 376.087 110C383.954 114.133 390.154 120.066 394.687 127.8C399.221 135.4 401.487 144.4 401.487 154.8C401.487 165.466 399.154 174.666 394.487 182.4C389.954 190.133 383.687 196.066 375.687 200.2C367.821 204.333 359.021 206.4 349.287 206.4ZM349.287 180C352.754 180 356.087 179.066 359.287 177.2C362.487 175.333 365.087 172.6 367.087 169C369.087 165.266 370.087 160.6 370.087 155C370.087 149.4 369.087 144.8 367.087 141.2C365.087 137.466 362.554 134.666 359.487 132.8C356.421 130.933 353.154 130 349.687 130C345.954 130 342.621 130.933 339.687 132.8C336.754 134.666 334.354 137.466 332.487 141.2C330.754 144.8 329.887 149.4 329.887 155C329.887 160.6 330.754 165.266 332.487 169C334.221 172.6 336.554 175.333 339.487 177.2C342.421 179.066 345.687 180 349.287 180Z" fill="white"/>
<path d="M490.498 120.4L486.498 120.6V60.9998H515.698V205H489.298L487.498 192.4C484.832 196.266 480.898 199.6 475.698 202.4C470.498 205.066 464.698 206.4 458.298 206.4C449.898 206.4 442.365 204.333 435.698 200.2C429.165 195.933 424.032 189.933 420.298 182.2C416.565 174.466 414.698 165.4 414.698 155C414.698 144.466 416.565 135.4 420.298 127.8C424.032 120.066 429.165 114.133 435.698 110C442.232 105.733 449.765 103.6 458.298 103.6C465.898 103.6 472.432 105.266 477.898 108.6C483.365 111.8 487.565 115.733 490.498 120.4ZM446.098 155C446.098 162.333 447.965 168.266 451.698 172.8C455.432 177.2 460.298 179.4 466.298 179.4C469.898 179.4 473.232 178.466 476.298 176.6C479.365 174.733 481.832 172 483.698 168.4C485.565 164.8 486.498 160.333 486.498 155C486.498 149.666 485.565 145.2 483.698 141.6C481.832 138 479.365 135.266 476.298 133.4C473.232 131.4 469.898 130.4 466.298 130.4C460.165 130.4 455.232 132.666 451.498 137.2C447.898 141.733 446.098 147.666 446.098 155Z" fill="white"/>
<path d="M532.848 135C532.848 124.6 534.582 115.066 538.048 106.4C541.648 97.5998 546.582 89.9998 552.848 83.5998C559.115 77.1998 566.582 72.2665 575.248 68.7998C583.915 65.3331 593.315 63.5998 603.448 63.5998C618.515 63.5998 631.648 67.2665 642.848 74.5998C654.048 81.9331 662.182 92.1998 667.248 105.4L640.848 112C638.315 106.666 635.115 102.4 631.248 99.1998C627.382 95.8665 623.115 93.4665 618.448 91.9998C613.782 90.3998 608.848 89.5998 603.648 89.5998C595.648 89.5998 588.648 91.5998 582.648 95.5998C576.648 99.4665 571.982 104.8 568.648 111.6C565.448 118.4 563.848 126.2 563.848 135C563.848 143.933 565.448 151.8 568.648 158.6C571.982 165.4 576.648 170.733 582.648 174.6C588.648 178.466 595.648 180.4 603.648 180.4C608.982 180.4 614.048 179.6 618.848 178C623.782 176.4 628.248 173.733 632.248 170C636.382 166.266 639.848 161.266 642.648 155L668.648 161C663.315 175.8 654.982 187.066 643.648 194.8C632.315 202.533 618.915 206.4 603.448 206.4C593.315 206.4 583.915 204.666 575.248 201.2C566.582 197.733 559.115 192.866 552.848 186.6C546.582 180.2 541.648 172.666 538.048 164C534.582 155.2 532.848 145.533 532.848 135Z" fill="white"/>
<path d="M687.848 105H714.448L716.448 118.2C718.982 114.733 721.982 111.866 725.448 109.6C729.048 107.2 732.982 105.6 737.248 104.8C741.648 104 746.448 104.066 751.648 105V132.6C748.182 131.4 744.448 131.066 740.448 131.6C736.448 132 732.648 133.333 729.048 135.6C725.448 137.733 722.515 140.933 720.248 145.2C718.115 149.466 717.048 154.866 717.048 161.4V205H687.848V105Z" fill="white"/>
<path d="M824.164 205L822.164 192.6C818.697 196.866 814.964 200.2 810.964 202.6C806.964 205 801.631 206.2 794.964 206.2C788.697 206.2 783.097 205.133 778.164 203C773.231 200.733 769.297 197.466 766.364 193.2C763.564 188.933 762.164 183.8 762.164 177.8C762.164 169.533 765.097 162.666 770.964 157.2C776.964 151.733 786.231 148.333 798.764 147L822.164 144.4V137.8C822.164 135.533 821.031 133.333 818.764 131.2C816.631 128.933 813.231 127.8 808.564 127.8C804.431 127.8 800.831 128.866 797.764 131C794.831 133.133 792.831 136.2 791.764 140.2L766.764 131.2C769.697 122.266 774.831 115.466 782.164 110.8C789.631 106 798.831 103.6 809.764 103.6C823.364 103.6 833.697 107 840.764 113.8C847.831 120.6 851.364 129.733 851.364 141.2V205H824.164ZM822.164 162.4L803.564 164.6C799.831 165.133 796.964 166.333 794.964 168.2C793.097 169.933 792.164 172.133 792.164 174.8C792.164 177.333 793.231 179.466 795.364 181.2C797.497 182.933 800.431 183.8 804.164 183.8C807.897 183.8 811.097 183.066 813.764 181.6C816.431 180 818.497 177.8 819.964 175C821.431 172.066 822.164 168.466 822.164 164.2V162.4Z" fill="white"/>
<path d="M877.619 97.5998C877.619 88.1331 879.352 80.5331 882.819 74.7998C886.419 69.0665 891.552 65.0665 898.219 62.7998C904.885 60.5331 913.019 59.9331 922.619 60.9998V86.9998C917.285 86.1998 913.285 86.9331 910.619 89.1998C908.085 91.3331 906.819 94.8665 906.819 99.7998V105H923.419V130.8H906.819V205H877.619V130.8H866.219V105H877.619V97.5998Z" fill="white"/>
<path d="M947.601 105V76.9998H977.401V105H998.001V130.8H977.401V166.8C977.401 171.333 978.401 174.533 980.401 176.4C982.535 178.266 985.201 179.266 988.401 179.4C991.601 179.4 994.801 179.133 998.001 178.6V204C991.201 205.2 984.735 205.533 978.601 205C972.468 204.6 967.068 203 962.401 200.2C957.868 197.4 954.268 193.266 951.601 187.8C948.935 182.333 947.601 175.333 947.601 166.8V130.8H933.601V105H947.601Z" fill="white"/>
</svg>
