<svg width="2100" height="537" viewBox="0 0 2100 537" fill="none" xmlns="http://www.w3.org/2000/svg">
<rect width="2100" height="537" fill="#F7F7F5"/>
<path d="M300.211 345.689C292.691 349.791 285.367 352.672 278.238 354.332C271.207 356.09 264.859 356.969 259.195 356.969C250.602 356.969 243.277 355.406 237.223 352.281C231.266 349.156 226.139 345.104 221.842 340.123C217.545 335.143 213.883 329.527 210.855 323.277C207.926 317.027 205.24 310.729 202.799 304.381C195.768 307.701 188.541 310.24 181.119 311.998C173.795 313.854 166.227 314.781 158.414 314.781C148.258 314.781 138.639 313.17 129.557 309.947C120.572 306.725 112.711 301.842 105.973 295.299C99.2344 288.756 93.8633 280.553 89.8594 270.689C85.9531 260.729 84 249.107 84 235.826C84 221.568 85.8555 207.457 89.5664 193.492C93.2773 179.43 98.502 166.051 105.24 153.355C112.076 140.562 120.23 128.746 129.703 117.906C139.273 106.969 149.869 97.5449 161.49 89.6348C173.209 81.627 185.758 75.377 199.137 70.8848C212.613 66.2949 226.676 64 241.324 64C250.113 64 257.682 65.1719 264.029 67.5156C270.475 69.7617 275.943 72.6426 280.436 76.1582C285.025 79.6738 288.736 83.5312 291.568 87.7305C294.498 91.832 296.744 95.6895 298.307 99.3027C299.967 102.916 301.09 105.992 301.676 108.531C302.262 111.07 302.604 112.535 302.701 112.926L295.23 114.391C295.133 114.195 294.84 113.023 294.352 110.875C293.863 108.629 292.984 105.943 291.715 102.818C290.445 99.5957 288.639 96.1777 286.295 92.5645C284.049 88.8535 281.021 85.4355 277.213 82.3105C273.502 79.1855 268.912 76.5977 263.443 74.5469C258.072 72.4961 251.676 71.4707 244.254 71.4707C233.023 71.4707 221.646 73.7656 210.123 78.3555C198.6 82.9453 187.467 89.293 176.725 97.3984C166.08 105.406 156.07 114.83 146.695 125.67C137.418 136.412 129.264 148.033 122.232 160.533C115.299 172.936 109.83 185.826 105.826 199.205C101.822 212.584 99.8203 225.865 99.8203 239.049C99.8203 250.67 101.383 260.777 104.508 269.371C107.633 277.867 111.832 284.898 117.105 290.465C122.477 296.129 128.727 300.328 135.855 303.062C143.082 305.797 150.748 307.164 158.854 307.164C165.982 307.164 172.965 306.285 179.801 304.527C186.734 302.77 193.473 300.328 200.016 297.203C198.16 292.516 196.256 288.072 194.303 283.873C192.447 279.576 190.299 275.816 187.857 272.594C185.514 269.371 182.828 266.832 179.801 264.977C176.871 263.023 173.404 262.047 169.4 262.047C166.568 262.047 163.883 262.291 161.344 262.779C158.902 263.17 156.705 263.658 154.752 264.244C152.896 264.83 151.383 265.367 150.211 265.855C149.137 266.246 148.6 266.441 148.6 266.441L145.67 259.41C145.865 259.312 146.744 259.02 148.307 258.531C149.869 257.945 151.871 257.359 154.312 256.773C156.754 256.09 159.537 255.504 162.662 255.016C165.885 254.43 169.254 254.137 172.77 254.137C178.922 254.137 184.244 255.064 188.736 256.92C193.229 258.775 197.086 261.314 200.309 264.537C203.531 267.662 206.266 271.324 208.512 275.523C210.855 279.723 213.004 284.166 214.957 288.854C221.891 284.264 228.482 278.99 234.732 273.033C240.982 267.076 246.744 260.68 252.018 253.844C257.389 247.008 262.174 239.781 266.373 232.164C270.67 224.547 274.332 216.783 277.359 208.873C280.387 200.963 282.682 193.053 284.244 185.143C285.904 177.135 286.734 169.273 286.734 161.559C286.734 153.16 285.66 145.299 283.512 137.975C281.363 130.65 278.336 124.303 274.43 118.932C270.523 113.463 265.787 109.215 260.221 106.188C254.752 103.062 248.6 101.5 241.764 101.5C234.732 101.5 227.896 103.062 221.256 106.188C214.615 109.312 208.707 113.658 203.531 119.225C198.453 124.791 194.352 131.432 191.227 139.146C188.199 146.764 186.686 155.064 186.686 164.049C186.686 172.447 188.443 180.504 191.959 188.219C195.475 195.934 201.09 202.525 208.805 207.994L205.143 212.975C200.748 211.412 196.5 209.215 192.398 206.383C188.297 203.453 184.684 199.938 181.559 195.836C178.434 191.734 175.895 187.047 173.941 181.773C172.086 176.5 171.158 170.641 171.158 164.195C171.158 153.551 173.062 143.932 176.871 135.338C180.68 126.646 185.807 119.225 192.252 113.072C198.697 106.92 206.119 102.184 214.518 98.8633C222.916 95.4453 231.656 93.7363 240.738 93.7363C249.137 93.7363 256.656 95.4941 263.297 99.0098C269.938 102.428 275.553 107.164 280.143 113.219C284.732 119.273 288.248 126.402 290.689 134.605C293.131 142.711 294.352 151.5 294.352 160.973C294.352 168.98 293.473 177.232 291.715 185.729C290.055 194.225 287.613 202.672 284.391 211.07C281.266 219.469 277.457 227.721 272.965 235.826C268.473 243.834 263.346 251.5 257.584 258.824C251.92 266.148 245.719 272.984 238.98 279.332C232.34 285.68 225.26 291.246 217.74 296.031C219.205 300.133 220.719 304.186 222.281 308.189C223.844 312.291 225.553 316.197 227.408 319.908C229.264 323.717 231.363 327.232 233.707 330.455C236.148 333.678 238.932 336.461 242.057 338.805C245.279 341.148 248.99 343.004 253.189 344.371C257.389 345.738 262.223 346.422 267.691 346.422C271.598 346.422 275.309 346.031 278.824 345.25C282.34 344.566 285.367 343.736 287.906 342.76C290.543 341.881 292.594 341.051 294.059 340.27C295.621 339.488 296.402 339.098 296.402 339.098L300.211 345.689Z" fill="#F3F3F2"/>
<path d="M368.766 252.232C364.273 257.506 359.83 262.389 355.436 266.881C351.041 271.275 346.646 275.084 342.252 278.307C337.955 281.432 333.658 283.873 329.361 285.631C325.064 287.486 320.719 288.414 316.324 288.414C312.613 288.414 309.244 287.73 306.217 286.363C303.287 285.094 300.748 283.287 298.6 280.943C296.354 278.502 294.645 275.572 293.473 272.154C292.301 268.639 291.715 264.732 291.715 260.436C291.715 253.697 293.229 246.764 296.256 239.635C299.186 232.506 302.896 225.572 307.389 218.834C311.979 212.096 317.008 205.699 322.477 199.645C328.043 193.59 333.316 188.219 338.297 183.531L344.596 187.926C341.08 193.102 337.125 198.961 332.73 205.504C328.434 212.047 324.332 218.834 320.426 225.865C316.617 232.799 313.395 239.781 310.758 246.812C308.121 253.746 306.803 260.191 306.803 266.148C306.803 270.152 307.535 273.57 309 276.402C310.562 279.234 313.492 280.65 317.789 280.65C322.477 280.65 327.604 278.795 333.17 275.084C338.834 271.373 344.596 266.539 350.455 260.582C356.412 254.625 362.32 247.936 368.18 240.514C374.137 232.994 379.752 225.426 385.025 217.809C390.299 210.191 395.084 202.916 399.381 195.982C403.775 189.049 407.34 183.141 410.074 178.258L420.768 183.531C415.104 194.664 409.635 205.064 404.361 214.732C399.186 224.303 394.547 232.945 390.445 240.66C386.441 248.277 383.219 254.918 380.777 260.582C378.434 266.246 377.262 270.738 377.262 274.059C377.262 275.426 377.555 276.549 378.141 277.428C378.727 278.307 379.654 278.746 380.924 278.746C384.537 278.844 388.492 277.281 392.789 274.059C397.184 270.836 401.578 266.783 405.973 261.9C410.465 257.018 414.811 251.695 419.01 245.934C423.307 240.074 427.164 234.605 430.582 229.527L435.855 233.629C435.27 234.605 434.049 236.607 432.193 239.635C430.338 242.662 428.043 246.129 425.309 250.035C422.574 253.941 419.449 258.043 415.934 262.34C412.418 266.637 408.707 270.592 404.801 274.205C400.895 277.721 396.842 280.65 392.643 282.994C388.443 285.24 384.293 286.363 380.191 286.363C377.652 286.363 375.357 285.924 373.307 285.045C371.354 284.166 369.693 282.994 368.326 281.529C366.959 280.064 365.885 278.355 365.104 276.402C364.322 274.449 363.932 272.398 363.932 270.25C363.932 267.711 364.322 264.928 365.104 261.9C365.982 258.873 367.203 255.65 368.766 252.232Z" fill="#F3F3F2"/>
<path d="M547.037 186.754C545.768 189.293 543.961 192.613 541.617 196.715C539.371 200.816 536.93 205.357 534.293 210.338C531.656 215.221 528.971 220.348 526.236 225.719C523.6 231.09 521.158 236.363 518.912 241.539C516.764 246.617 514.957 251.451 513.492 256.041C512.125 260.533 511.441 264.342 511.441 267.467C511.441 270.592 512.027 272.643 513.199 273.619C514.469 274.498 516.08 274.938 518.033 274.938C520.865 274.938 523.746 274.107 526.676 272.447C529.703 270.787 532.633 268.639 535.465 266.002C538.395 263.365 541.227 260.387 543.961 257.066C546.695 253.746 549.234 250.426 551.578 247.105C554.02 243.688 556.217 240.465 558.17 237.438C560.123 234.312 561.783 231.676 563.15 229.527L568.424 233.629C566.764 236.754 564.811 240.123 562.564 243.736C560.318 247.35 557.828 251.012 555.094 254.723C552.457 258.336 549.576 261.852 546.451 265.27C543.326 268.688 540.006 271.715 536.49 274.352C533.072 276.988 529.459 279.088 525.65 280.65C521.842 282.213 517.936 282.994 513.932 282.994C508.072 282.994 503.775 281.236 501.041 277.721C498.307 274.205 496.939 269.664 496.939 264.098C496.939 263.707 496.939 262.877 496.939 261.607C497.037 260.24 497.184 259.166 497.379 258.385C492.496 264.537 487.809 269.615 483.316 273.619C478.922 277.623 474.625 280.797 470.426 283.141C466.324 285.484 462.32 287.096 458.414 287.975C454.605 288.951 450.943 289.439 447.428 289.439C443.717 289.439 440.201 288.805 436.881 287.535C433.658 286.363 430.826 284.605 428.385 282.262C425.846 279.918 423.893 277.037 422.525 273.619C421.061 270.201 420.328 266.246 420.328 261.754C420.328 256.188 421.598 249.84 424.137 242.711C426.578 235.484 430.973 227.721 437.32 219.42C442.691 212.291 448.258 206.285 454.02 201.402C459.879 196.52 465.592 192.613 471.158 189.684C476.822 186.656 482.193 184.508 487.271 183.238C492.35 181.969 496.891 181.334 500.895 181.334C509.879 181.334 516.666 182.848 521.256 185.875C525.846 188.805 528.629 193.346 529.605 199.498C531.559 197.057 533.609 194.615 535.758 192.174C537.906 189.732 540.104 187.242 542.35 184.703L547.037 186.754ZM502.066 242.418C503.336 240.367 504.898 237.779 506.754 234.654C508.609 231.432 510.562 228.16 512.613 224.84C514.664 221.422 516.666 218.15 518.619 215.025C520.572 211.9 522.281 209.264 523.746 207.115C523.746 206.236 523.6 204.82 523.307 202.867C523.111 200.914 522.477 198.961 521.402 197.008C520.328 194.957 518.619 193.199 516.275 191.734C513.932 190.27 510.66 189.537 506.461 189.537C503.434 189.537 500.016 190.025 496.207 191.002C492.496 191.881 488.492 193.443 484.195 195.689C479.996 197.838 475.65 200.719 471.158 204.332C466.666 207.945 462.174 212.438 457.682 217.809C450.943 225.914 445.719 234.068 442.008 242.271C438.395 250.377 436.588 257.701 436.588 264.244C436.588 269.811 437.857 274.107 440.396 277.135C442.936 280.162 446.549 281.676 451.236 281.676C456.607 281.676 461.637 280.504 466.324 278.16C471.012 275.719 475.406 272.594 479.508 268.785C483.609 264.977 487.516 260.777 491.227 256.188C494.938 251.5 498.551 246.91 502.066 242.418Z" fill="#F3F3F2"/>
<path d="M669.352 71.0312C672.77 71.0312 675.602 71.8613 677.848 73.5215C680.191 75.1816 681.363 78.209 681.363 82.6035C681.363 85.6309 680.729 89.2441 679.459 93.4434C678.287 97.6426 676.627 102.232 674.479 107.213C672.428 112.096 669.986 117.271 667.154 122.74C664.322 128.111 661.246 133.482 657.926 138.854C654.703 144.225 651.285 149.449 647.672 154.527C644.156 159.605 640.641 164.293 637.125 168.59C630.094 177.281 623.99 184.605 618.814 190.562C613.736 196.52 609.342 201.598 605.631 205.797C601.92 209.898 598.795 213.268 596.256 215.904C593.717 218.443 591.471 220.641 589.518 222.496C587.564 224.352 585.758 226.061 584.098 227.623C582.438 229.088 580.729 230.748 578.971 232.604C578.189 236.314 577.799 239.879 577.799 243.297C577.896 246.617 577.945 249.693 577.945 252.525C577.945 261.021 579.312 267.32 582.047 271.422C584.781 275.523 588.639 277.574 593.619 277.574C596.939 277.574 600.26 276.744 603.58 275.084C606.998 273.326 610.367 271.08 613.688 268.346C617.008 265.611 620.23 262.535 623.355 259.117C626.48 255.602 629.41 252.086 632.145 248.57C634.977 244.957 637.516 241.49 639.762 238.17C642.008 234.85 643.961 231.969 645.621 229.527L651.041 233.629C650.748 234.02 649.771 235.582 648.111 238.316C646.549 240.953 644.449 244.176 641.812 247.984C639.176 251.793 636.051 255.895 632.438 260.289C628.824 264.586 624.918 268.59 620.719 272.301C616.52 276.012 612.076 279.088 607.389 281.529C602.799 283.971 598.111 285.191 593.326 285.191C589.322 285.191 585.465 284.459 581.754 282.994C578.141 281.432 574.918 279.039 572.086 275.816C569.352 272.496 567.105 268.297 565.348 263.219C563.688 258.141 562.857 252.037 562.857 244.908C562.857 236.021 563.883 226.744 565.934 217.076C568.082 207.311 570.963 197.545 574.576 187.779C578.189 177.916 582.438 168.199 587.32 158.629C592.203 149.059 597.379 139.977 602.848 131.383C608.414 122.691 614.176 114.684 620.133 107.359C626.188 99.9375 632.096 93.541 637.857 88.1699C643.717 82.7988 649.332 78.5996 654.703 75.5723C660.074 72.5449 664.957 71.0312 669.352 71.0312ZM581.607 219.566C589.908 210.973 597.916 202.281 605.631 193.492C613.443 184.605 620.719 175.865 627.457 167.271C634.293 158.58 640.543 150.182 646.207 142.076C651.871 133.873 656.705 126.158 660.709 118.932C664.713 111.705 667.838 105.113 670.084 99.1562C672.33 93.1992 673.453 88.0723 673.453 83.7754C673.453 82.9941 673.062 81.9688 672.281 80.6992C671.5 79.332 670.572 78.6484 669.498 78.6484C666.471 78.6484 662.467 80.6504 657.486 84.6543C652.506 88.6582 647.086 94.127 641.227 101.061C635.465 107.896 629.459 115.904 623.209 125.084C617.057 134.264 611.246 144.078 605.777 154.527C600.309 164.977 595.426 175.768 591.129 186.9C586.832 198.033 583.658 208.922 581.607 219.566Z" fill="#F3F3F2"/>
<path d="M711.393 154.234C711.393 156.188 710.904 158.238 709.928 160.387C708.951 162.438 707.682 164.293 706.119 165.953C704.654 167.613 702.994 168.98 701.139 170.055C699.283 171.129 697.428 171.666 695.572 171.666C693.912 171.666 692.643 171.08 691.764 169.908C690.885 168.639 690.445 167.125 690.445 165.367C690.445 163.805 690.738 161.949 691.324 159.801C691.91 157.652 692.789 155.65 693.961 153.795C695.133 151.842 696.549 150.182 698.209 148.814C699.869 147.447 701.773 146.764 703.922 146.764C705.973 146.764 707.73 147.545 709.195 149.107C710.66 150.67 711.393 152.379 711.393 154.234ZM684 186.754C682.73 189.293 680.924 192.662 678.58 196.861C676.334 200.963 673.893 205.504 671.256 210.484C668.619 215.367 665.934 220.543 663.199 226.012C660.465 231.383 657.975 236.656 655.729 241.832C653.58 246.91 651.822 251.695 650.455 256.188C649.088 260.68 648.404 264.488 648.404 267.613C648.404 270.445 648.99 272.398 650.162 273.473C651.334 274.449 652.994 274.938 655.143 274.938C659.146 274.938 663.053 273.619 666.861 270.982C670.67 268.346 674.43 264.928 678.141 260.729C681.949 256.432 685.66 251.549 689.273 246.08C692.887 240.611 696.5 235.094 700.113 229.527L705.387 233.629C702.555 238.707 699.332 244.127 695.719 249.889C692.203 255.65 688.248 261.021 683.854 266.002C679.459 270.885 674.625 274.938 669.352 278.16C664.078 281.383 658.316 282.994 652.066 282.994C646.207 282.994 641.715 281.236 638.59 277.721C635.465 274.205 633.902 269.664 633.902 264.098C633.902 257.555 635.416 250.719 638.443 243.59C641.471 236.461 645.23 229.43 649.723 222.496C654.312 215.465 659.244 208.727 664.518 202.281C669.889 195.836 674.82 189.977 679.312 184.703L684 186.754Z" fill="#F3F3F2"/>
<path d="M729.85 163.316C730.826 161.656 732.535 158.775 734.977 154.674C737.516 150.572 740.445 146.031 743.766 141.051C747.184 136.07 750.846 131.09 754.752 126.109C758.756 121.031 762.662 116.734 766.471 113.219L773.062 117.174C768.863 124.107 764.566 131.48 760.172 139.293C755.777 147.008 751.432 155.016 747.135 163.316H794.889L791.959 170.934H743.18C738.785 179.723 734.635 188.463 730.729 197.154C726.92 205.846 723.551 214.146 720.621 222.057C717.691 229.967 715.396 237.389 713.736 244.322C712.076 251.158 711.246 257.115 711.246 262.193C711.246 268.541 712.711 273.131 715.641 275.963C718.57 278.697 722.184 280.064 726.48 280.064C730.289 280.064 734.195 278.941 738.199 276.695C742.203 274.352 746.109 271.422 749.918 267.906C753.824 264.391 757.486 260.533 760.904 256.334C764.42 252.135 767.496 248.18 770.133 244.469C772.867 240.758 775.113 237.535 776.871 234.801C778.629 231.969 779.703 230.211 780.094 229.527L785.514 233.629C782.096 239.293 778.238 245.299 773.941 251.646C769.645 257.994 764.859 263.902 759.586 269.371C754.41 274.742 748.746 279.234 742.594 282.848C736.441 286.363 729.801 288.121 722.672 288.121C718.277 288.121 714.42 287.34 711.1 285.777C707.877 284.215 705.143 282.066 702.896 279.332C700.65 276.5 698.99 273.18 697.916 269.371C696.744 265.562 696.158 261.412 696.158 256.92C696.158 253.99 696.646 249.84 697.623 244.469C698.502 239.098 700.064 232.75 702.311 225.426C704.557 218.004 707.535 209.703 711.246 200.523C715.055 191.344 719.84 181.48 725.602 170.934H701.285L704.215 163.316H729.85Z" fill="#F3F3F2"/>
<path d="M844.986 251.5C841.178 255.699 837.32 259.605 833.414 263.219C829.508 266.734 825.65 269.811 821.842 272.447C818.033 275.084 814.273 277.184 810.562 278.746C806.949 280.211 803.434 280.943 800.016 280.943C796.207 280.943 792.74 280.26 789.615 278.893C786.588 277.428 783.951 275.377 781.705 272.74C779.557 270.104 777.896 266.979 776.725 263.365C775.553 259.752 774.967 255.748 774.967 251.354C774.967 245.494 776.188 239.391 778.629 233.043C781.07 226.695 784.195 220.543 788.004 214.586C791.91 208.531 796.207 202.818 800.895 197.447C805.68 192.076 810.318 187.438 814.811 183.531L821.109 187.926C819.938 189.586 818.326 191.881 816.275 194.811C814.225 197.74 812.027 201.158 809.684 205.064C807.34 208.873 804.947 213.023 802.506 217.516C800.162 222.008 798.014 226.598 796.061 231.285C794.107 235.973 792.496 240.66 791.227 245.348C790.055 250.035 789.469 254.43 789.469 258.531C789.469 260.484 789.615 262.389 789.908 264.244C790.299 266.002 790.885 267.564 791.666 268.932C792.545 270.299 793.668 271.373 795.035 272.154C796.402 272.936 798.16 273.326 800.309 273.326C803.727 273.326 807.438 272.301 811.441 270.25C815.543 268.102 819.742 265.221 824.039 261.607C828.434 257.896 832.877 253.6 837.369 248.717C841.959 243.834 846.451 238.609 850.846 233.043C855.24 227.477 859.488 221.764 863.59 215.904C867.691 209.947 871.5 204.088 875.016 198.326C878.141 193.15 881.266 187.975 884.391 182.799C887.516 177.525 890.641 172.398 893.766 167.418L900.65 170.934C900.553 171.129 899.625 172.984 897.867 176.5C896.207 179.918 893.961 184.605 891.129 190.562C888.297 196.422 884.977 203.258 881.168 211.07C877.457 218.785 873.502 227.037 869.303 235.826C865.104 244.518 860.807 253.453 856.412 262.633C852.115 271.812 847.916 280.748 843.814 289.439C857.584 281.822 870.035 272.789 881.168 262.34C892.398 251.891 902.018 240.953 910.025 229.527L915.445 233.629C906.949 246.617 896.402 258.629 883.805 269.664C871.207 280.602 856.021 291.1 838.248 301.158C830.143 318.541 822.184 334.41 814.371 348.766C806.656 363.121 798.893 375.426 791.08 385.68C783.365 395.934 775.65 403.844 767.936 409.41C760.123 415.074 752.213 417.906 744.205 417.906C738.932 417.906 734.537 416.148 731.021 412.633C727.506 409.117 725.748 404.088 725.748 397.545C725.748 392.076 726.969 386.461 729.41 380.699C731.852 374.938 735.221 369.127 739.518 363.268C743.814 357.506 748.941 351.744 754.898 345.982C760.758 340.318 767.203 334.85 774.234 329.576C781.168 324.303 788.443 319.273 796.061 314.488C803.775 309.703 811.588 305.309 819.498 301.305C821.549 297.008 823.746 292.467 826.09 287.682C828.434 282.994 830.729 278.453 832.975 274.059C835.221 269.566 837.369 265.367 839.42 261.461C841.568 257.457 843.424 254.137 844.986 251.5ZM812.76 315.514C801.529 322.447 791.08 329.82 781.412 337.633C771.842 345.543 763.541 353.307 756.51 360.924C749.381 368.639 743.814 375.865 739.811 382.604C735.807 389.342 733.805 395.055 733.805 399.742C733.805 402.867 734.732 405.357 736.588 407.213C738.346 409.068 740.641 409.996 743.473 409.996C747.281 409.996 751.236 408.678 755.338 406.041C759.342 403.502 763.395 399.986 767.496 395.494C771.5 391.002 775.504 385.68 779.508 379.527C783.512 373.473 787.418 366.93 791.227 359.898C795.133 352.965 798.893 345.689 802.506 338.072C806.119 330.553 809.537 323.033 812.76 315.514Z" fill="#F3F3F2"/>
</svg>
