<svg width="572" height="571" viewBox="0 0 572 571" fill="none" xmlns="http://www.w3.org/2000/svg">
<path d="M426.305 164.721C455.356 250.682 446.355 351.788 380.07 408.276C314.194 464.355 190.217 475.408 106.338 417.691C22.459 359.975 -22.14 233.49 11.0024 141.798C43.7356 50.1069 154.21 -6.38156 242.59 0.577156C330.97 7.94521 397.255 78.7604 426.305 164.721Z" fill="#EAE7E3"/>
<path d="M323.12 66.12L316 59L308.88 66.12H308V67L60 315L316 571L572 315L324 67V66.12H323.12ZM308 404.76L218.24 315L308 225.24V404.76ZM324 225.24L413.76 315L324 404.76V225.24ZM549.376 315L316 548.376L82.624 315L308 89.624V202.616L195.616 315L316 435.384L436.384 315L324 202.6V89.624L549.376 315Z" fill="#897A66"/>
</svg>
