<svg width="532" height="512" viewBox="0 0 532 512" fill="none" xmlns="http://www.w3.org/2000/svg">
<path d="M523.34 131.198C554.935 218.406 497.49 344.425 393.13 424.925C288.292 505.903 137.018 541.361 61.3813 483.382C-14.2555 425.883 -14.2555 274.947 30.2648 170.01C74.7852 64.5944 162.869 5.65744 267.228 0.386657C371.588 -4.88413 492.224 43.9904 523.34 131.198Z" fill="#EAE7E3"/>
<path d="M90.64 421.328H315.536C319.504 472.048 361.824 512 413.568 512C467.936 512 512 467.936 512 413.568C512 361.856 472.096 319.552 421.424 315.536V90.72H197.248V0H0V197.232H90.64V421.328ZM496 413.568C496 459.024 459.024 496 413.568 496C368.112 496 331.136 459.024 331.136 413.568C331.136 368.112 368.112 331.136 413.568 331.136C459.024 331.136 496 368.112 496 413.568ZM405.424 106.72V315.552C357.616 319.488 319.536 357.52 315.552 405.328H106.64V197.232H197.232V106.72H405.424ZM16 16H181.248V181.232H16V16Z" fill="#897A66"/>
</svg>
